/* XPM */
static char *xpm_[] = {
/* columns rows colors chars-per-pixel */
"64 64 239 2 ",
"   c #2E1706",
".  c #2D1905",
"X  c #2E1609",
"o  c #2C190A",
"O  c #31150B",
"+  c #341705",
"@  c #2C1618",
"#  c #341617",
"$  c #3A0F1E",
"%  c #381424",
"&  c #3F3013",
"*  c #560C0F",
"=  c #471803",
"-  c #550C14",
";  c #550C1C",
":  c #580A1B",
">  c #52150F",
",  c #553A0F",
"<  c #58380F",
"1  c #563712",
"2  c #593513",
"3  c #553912",
"4  c #57381A",
"5  c #4F2916",
"6  c #7B3E1A",
"7  c #643B13",
"8  c #560A23",
"9  c #570629",
"0  c #47132B",
"q  c #4B0C3D",
"w  c #4A0E36",
"e  c #5A0434",
"r  c #570638",
"t  c #461238",
"y  c #5C1638",
"u  c #4E1123",
"i  c #62093E",
"p  c #62182D",
"a  c #573425",
"s  c #502A2F",
"d  c #723031",
"f  c #601E1E",
"g  c #77440A",
"h  c #76411D",
"j  c #754716",
"k  c #6E4F1A",
"l  c #775829",
"z  c #6D5737",
"x  c #4C0B41",
"c  c #450D40",
"v  c #570749",
"b  c #5A064A",
"n  c #580846",
"m  c #5C1147",
"M  c #64024B",
"N  c #640E4B",
"B  c #690B4D",
"V  c #620742",
"C  c #621045",
"Z  c #6C0D54",
"A  c #6D0E5B",
"S  c #640A52",
"D  c #730C56",
"F  c #740B5C",
"G  c #77095A",
"H  c #6C1056",
"J  c #6C105A",
"K  c #671259",
"L  c #721158",
"P  c #711945",
"I  c #5A2744",
"U  c #6F2E4E",
"Y  c #750B60",
"T  c #790C61",
"R  c #7B3562",
"E  c #754F49",
"W  c #9A4C3A",
"Q  c #8D5237",
"!  c #A1473E",
"~  c #A24A3D",
"^  c #916C32",
"/  c #A3703D",
"(  c #832C5C",
")  c #A63E57",
"_  c #A63D5B",
"`  c #AA3C5B",
"'  c #AA3D56",
"]  c #8F3E64",
"[  c #983C6C",
"{  c #9C3B73",
"}  c #993674",
"|  c #8F3D73",
" . c #A53E62",
".. c #A73C66",
"X. c #A53B72",
"o. c #A8397A",
"O. c #B53F6A",
"+. c #9F4644",
"@. c #9C4943",
"#. c #9D474B",
"$. c #954B4A",
"%. c #994755",
"&. c #914856",
"*. c #A24643",
"=. c #A2444A",
"-. c #A24944",
";. c #A44155",
":. c #A4415A",
">. c #A94457",
",. c #A95E56",
"<. c #8F6B55",
"1. c #A8694A",
"2. c #A56854",
"3. c #AD7C58",
"4. c #B3765E",
"5. c #9D4267",
"6. c #9F5769",
"7. c #AD4569",
"8. c #AA4767",
"9. c #BD4C7E",
"0. c #B04B6F",
"q. c #AE7A64",
"w. c #B27A62",
"e. c #BD6672",
"r. c #C5537C",
"t. c #C8537B",
"y. c #B88A3C",
"u. c #AA824C",
"i. c #B38E4A",
"p. c #C78A5A",
"a. c #C49C57",
"s. c #D2AB5E",
"d. c #CE8563",
"f. c #CC8468",
"g. c #D18463",
"h. c #D1826A",
"j. c #CA8479",
"k. c #DE9E76",
"l. c #D09E6F",
"z. c #E49C73",
"x. c #E89A73",
"c. c #E49D6E",
"v. c #DBBA76",
"b. c #DEB779",
"n. c #D5BA7B",
"m. c #DBB979",
"M. c #D7B775",
"N. c #D3A56B",
"B. c #E4B878",
"V. c #F3BD7A",
"C. c #F3CE4C",
"Z. c #EBD34D",
"A. c #ECD448",
"S. c #F2D24C",
"D. c #EECF56",
"F. c #EECF5D",
"G. c #F4CE53",
"H. c #F3CC5C",
"J. c #F8CA5F",
"K. c #EDD353",
"L. c #EAD257",
"P. c #F1D151",
"I. c #F1D35C",
"U. c #EDCE64",
"Y. c #EECD6C",
"T. c #F4CC62",
"R. c #F9CA63",
"E. c #F3CB6B",
"W. c #F7C769",
"Q. c #EED566",
"!. c #F1DC6D",
"~. c #EDCD72",
"^. c #EBCA7B",
"/. c #F6C674",
"(. c #FEC475",
"). c #F2CB72",
"_. c #F5C67B",
"`. c #FCC37C",
"'. c #F5C979",
"]. c #F2D97A",
"[. c #EFE16D",
"{. c #EFE167",
"}. c #F0E16C",
"|. c #F0E067",
" X c #F0E070",
".X c #BC4C83",
"XX c #C14C85",
"oX c #C65281",
"OX c #C85885",
"+X c #D35D8C",
"@X c #D65C89",
"#X c #D25D90",
"$X c #CC5F94",
"%X c #DB6A98",
"&X c #CF658A",
"*X c #EE6F95",
"=X c #ED6E9B",
"-X c #E4689B",
";X c #F36C96",
":X c #F26D9A",
">X c #ED709B",
",X c #EA7199",
"<X c #F0709A",
"1X c #F27094",
"2X c #F16F8B",
"3X c #EC6EA2",
"4X c #E86FA5",
"5X c #F16CA2",
"6X c #E771A4",
"7X c #EA71A2",
"8X c #E870AB",
"9X c #C68888",
"0X c #D79D88",
"qX c #D49390",
"wX c #D8B787",
"eX c #DBB493",
"rX c #CDA389",
"tX c #EEBD85",
"yX c #F4BC86",
"uX c #F9BF9C",
"iX c #F1BEAD",
"pX c #DB96A4",
"aX c #EDC982",
"sX c #EAC989",
"dX c #FCC382",
"fX c #F6C489",
"gX c #F5DB87",
"hX c #F3C494",
"jX c #F3C598",
"kX c #EAC699",
"lX c #F8E68D",
"zX c #F6E888",
"xX c #FBE497",
"cX c #FFDEA5",
"vX c #FFDEAA",
"bX c #F1C4A7",
"nX c #FEE2A6",
"mX c #FFE1B0",
"MX c none",
/* pixels */
"MXMXMXMXMXMXMXMXMXMXMXMXMXMXMXMXMXMXMXMXMXMXMXMXMXMXMXMXMXMXMXMXMXMXMXMXMXMXMXMXMXMXMXMXMXMXMXMXMXMXMXMXMXMXMXMXMXMXMXMXMXMXMXMX",
"MXMXMXMXMXMXMXMXMXMXMXMXMXMXMXMXMXMXMXMXMXMXMXMXMXMXMXMXMXMXMXMXMXMXMXMXMXMXMXMXMXMXMXMXMXMXMXMXMXMXMXMXMXMXMXMXMXMXMXMXMXMXMXMX",
"MXMXMXMXMXMXMXMXMXMXMXMXMXMXMXMXMXMXMXMXMXMXMXMXMXMXMXMXMXMXMXMXMXMXMXMXMXMXMXMXMXMXMXMXMXMXMXMXMXMXMXMXMXMXMXMXMXMXMXMXMXMXMXMX",
"MXMXMXMXMXMXMXMXMXMXMXMXMXMXMXMXMXMXMXMXMXMXMXMXMXMXMXMXMXMXMXMXMXMXMXMXMXMXMXMXMXMXMXMXMXMXMXMXMXMXMXMXMXMXMXMXMXMXMXMXMXMXMXMX",
"MXMXMXMXMXMXMXMXMXMXMXMXMXMXMXMXMXMXMXMXMXMXMXMXMXMXMXMXMXMXMXMXMXMXMXMXMXMXMXMXMXMXMXMXMXMXMXMXMXMXMXMXMXMXMXMXMXMXMXMXMXMXMXMX",
"MXMXMXMXMXMXMXMXMXMXMXMXMXMXMXMXw w w q q q q q q q q w 0 0 $ + + O $ 0 w q x q q q q r x x x % MXMXMXMXMXMXMXMXMXMXMXMXMXMXMXMX",
"MXMXMXMXMXMXMXMXMXMXMXMXMXMXMXMXm y C C C C N N N N C y y s a 4 2 a s p y y N B N B H N N N S m MXMXMXMXMXMXMXMXMXMXMXMXMXMXMXMX",
"MXMXMXMXMXMXMXMXMXMXMXI s I I R ] [ [ { [ { } } } } [ ] &.9XeXtXtXeX9X&.] [ { { } } } } } } } | R I I s s MXMXMXMXMXMXMXMXMXMXMX",
"MXMXMXMXMXMXMXMXMXMX@ % % w r ( { X.X...X.X.X.X.X.o.X.5.#.0XhX^.aXhX0X$.5.5.X.8.X.o.X.o.o.o.o.o.R r 0 5 # o MXMXMXMXMXMXMXMXMXMX",
"MXMXMXMXMXMXMXMXMXMXE E U P P [ 9.9.9.9.9..XXX.X.X.X0.%.#.0XfX)./.tXk.$.%.0.9.9..X.XXXXXXXXXXX.X{ P p U E E MXMXMXMXMXMXMXMXMXMX",
"MXMXMXMXMXMXMXMX. z bXiX9X&.8.OX4X6X3X3X7X4X7X6X4X4XOX:.+.z.`.E.W._.k.W ;.9.6X,X6X6X3X3X4X8X8X8X$X[ 5.9XbXbXz . MXMXMXMXMXMXMXMX",
"MXMXMXMXMXMXMX& . l kXbX9X%._ #X3X3X=X3X3X3X=X>X-X4Xr.;.+.z.`.T.W._.k.@.:.r.6X,X=X>X>X=X:X3X7X4X$X..%.j.bXkXz . 5 MXMXMXMXMXMXMX",
"MXMXMXMXMXMXMXu.<.i.fXjXj.#.` @X=X=X:X5X5X3X>X*X=X,Xr.;.! x.(.H.H._.k.+.;.t.3X=X=X*X>X>X=X*X=X3X#X..%.j.uXsXi.^ <.MXMXMXMXMXMXMX",
"MXMXMXMXMX@ 4 wX^.^.'.dXd.+.` @X3X:X:X5X5X5X*X*X=X6Xt.;.! c.(.J.T.(.z.@.) t.3X=X=X*X<X*X*X2X<X3X+X..-.e.fX_.^.sXwX4 @ MXMXMXMXMX",
"MXMXMXMXMXo & wX^.Q.W.yXg.! ` @X5X:X:X5X5X5X>X*X=X3XoX) ! x.(.H.T._.k.@.) oX3X=X:X=X=X=X1X2X2X=X@XO.-.h.fXE.Y.^.n.3 o MXMXMXMXMX",
"MXMXMXMXMXo 3 n.~.Q.R.(.g.' ` @X5X:X:X:X:X5X:X>X3X7XoX` ! c.(.H.H.(.z.@._ oX3X=X;X:X;X=X1X2X*X=X@X7.>.g.dXY.Q.[.wX3 o MXMXMXMXMX",
"MXMXMXMXMXo 3 m.Y.T.R.`.g.*.` @X5X:X=X:X:X:X:X:X=X3XoX` *.x.(.H.H._.k.@.) t.3X:X:X;X;X=X*X2X*X3X@X..*.g.dXR.T.~.n.3 X MXMXMXMXMX",
"MXMXMXMXMXo 3 ^.Y.T.R.V.g.=...+X5X5X*X:X:X;X:X:X3X3XoX` ~ c.(.H.H./.k.W _ t.:X:X:X:X:X:X*X2X*X3X@X` *.g.`.R.H.Y.n.3 X MXMXMXMXMX",
"MXMXMXMXMX  , v.E.H.R.`.g.=. .#X5X3X:X=X;X;X:X:X3X3XoX) *.z.(.H.H._.k.@.;.r.=X:X:X:X<X:X>X1X:X3X+X8.=.g.`.R.F.Y.n.3 . MXMXMXMXMX",
"MXMXMXMXMX  , v.E.T.R.`.g.*.` #X3X=X;X;X:X;X;X=X=X3XoX) ~ x.(.J.T.(.k.W ;.r.=X:X;X;X<X:X*X*X:X3X#X .-.g.`.R.U.Y.M.3 o MXMXMXMXMX",
"MXMXMXMXMX  , B.E.T.R.`.d.@.8.+X3X=X=X;X;X;X;X;X3X3XoX) ! x.`.T.W._.z.@.;.r.=X;X;X;X;X:X:X:X:X3X#X .+.d.V.R.E.~.n.3 o MXMXMXMXMX",
"MXMXMXMXMX  , b.).T.R.`.d.$._ $X6X=X;X;X;X;X;X;X=X3XoX) *.x.`.W.E._.k.$.;.r.=X:X;X;X;X:X:X:X5X8X#X[ #.g.yXR.U.~.n.3 o MXMXMXMXMX",
"MXMXMXMXMX+ , m.Y.T.R.dXf.#. .+X3X=X:X:X5X5X<X*X,X,Xr.:.+.z.`.R.R._.k.@.;.r.=X*X:X<X:X:X:X5X5X3X@X_ W g.dXR.W.~.m.3 . MXMXMXMXMX",
"MXMXMXMXMX  3 v.E.T.R.yXh.#. .+X3X>X:X5X5X5X*X*X,X,Xr.:.@.z._.R.U._.k.#.;.r.>X>X>X:X:X:X:X:X5X=X@X) +.g.dXW.W.'.m.3 . MXMXMXMXMX",
"MXMXMXMXMXX 2 m.Y.I.R.dXh.=._ +X7X=X=X=X:X3X=X=X>X7Xt.) ! x.`.R.T./.z.+.;.t.7X<X;X=X*X:X:X:X=X=X@X:.-.d.dXE.E.).m.3   MXMXMXMXMX",
"MXMXMXMXMXX 2 m.~.T.R.dXg.#._ +X=X,X*X>X>X:X:X:X=X3Xt.` ! x.(.J.J.`.x.W >.r.=X:X:X:X:X:X;X:X=X>X&X:.-.f.`.T.T.~.m.3   MXMXMXMXMX",
"MXMXMXMXMXO 4 b.).H.R.`.g.*.` +X=X,X*X*X<X:X:X:X5X3XoX` *.x.(.J.J.(.x.~ ' t.3X=X:X:X:X:X:X:X>X>X@X) -.f.dXT.H.Y.m.3 X MXMXMXMXMX",
"MXMXMXMXMXO 4 b.~.J.R.`.g.=.>.@X>X*X*X;X1X<X:X<X5X3Xt.` ! x.V.J.J.(.x.-.' t.3X=X:X:X:X:X:X;X>X>XOX_ @.g.`.J.I.E.m.2 X MXMXMXMXMX",
"MXMXMXMXMXO 4 b.E.T.R.V.g.*.` @X3X:X:X;X:X;X;X*X=X3XoX_ @.x.(.J.J.W.c.~ ' t.=X*X=X:X5X:X:X=X=X3X+X..=.g.`.J.J.E.b.2 O MXMXMXMXMX",
"MXMXMXMXMXO 2 b.Y.T.R.`.g.*.` @X5X5X:X:X:X:X=X=X-X3Xr.;.W c.(.J.J.V.c.~ ' t.7X>X=X-X:X3X3X=X=X3X+X` =.g.yXR.H.E.b.2 O MXMXMXMXMX",
"MXMXMXMXMXX 3 b.Y.H.R.`.g.-.` #X7X3X5X=X:X5X3X>X=X,Xe.#.W c.W.H.G.W.c.W $.e.,X6X4X4X5X5X3X=X6X6X#X_ =.d.`.R.H.Y.b.2 X MXMXMXMXMX",
"MXMXMXMXMXX 3 m.Y.T.R.`.g.-.>.OX%X-X-X-X-X-X-X-X%X%Xe.,./ N.Y.D.G.R.s./ 2.e.&X&X%X-X-X3X-X%X%X%XOX8.#.d.yXR.H.W.b.<   MXMXMXMXMX",
"MXMXMXMXMX  3 v.Y.H.T.(.p.W %.8.7.7.7.7.7.7.7.8.6.>.9XiXhX'.U.K.D.F.~.sXbXqX%.6.0.7.7.7.7.7.8.7.8.%.Q f.dXR.T.).B.3   MXMXMXMXMX",
"MXMXMXMXMX  , v.Y.F.U.'.i.Q $.$.%.$.#.%.%.&.&.&.@.$.l.vXxXY.D.K.K.K.!.lXnXl.Q @.$.$.=.;.#.#.$.%.&.$.Q i.'.T.U.).v.3   MXMXMXMXMX",
"MXMXMXMXMX  , v.~.U.F.~.s.3.3.3.w.4.w.w.w.q.q.q.u.u.M.gXzXI.D.Z.P.K.Q.].gXM.u.u.w.4.4.w.w.w.w.q.3.3.3.s.).T.U.).b.3   MXMXMXMXMX",
"MXMXMXMXMX  3 m.Y.F.F.Y.gXxXnXnXnXnXcXnXmXmXmXnXnXxX].Q.U.L.L.L.H.F.F.U.Y.gXxXnXnXnXcXnXvXvXvXvXnXcXxX].U.I.R.).b.3   MXMXMXMXMX",
"MXMXMXMXMX  3 b.~.F.K.F. XlXlXlXlXzXzXlXlXlXlXzXlXzX].Q.Q.Y.Y.Q.).W.E.U.Y.].zXzXzXlXlXlXlXlXlXlXzXzXzX!.K.P.H.E.b.2 X MXMXMXMXMX",
"MXMXMXMXMX  2 B.Y.F.P.F.Q.[.[.[.}.{.|.[.[.[.[.{.}.!.Q.Y.Q.i./ u.3.u.a./.Y.!.}.[.[.[. X X!.!.}.}.|.[.}.I.P.P.G.E.b.2 X MXMXMXMXMX",
"MXMXMXMXMXO 4 B.E.H.C.D.K.K.L.K.Z.A.Z.Z.Z.L.A.A.Z.Z.I.Q.~.j + = < < ^ ^.E.U.L.L.K.L.L.Z.K.K.Z.K.Z.K.Z.Z.P.C.G.E.B.2 X MXMXMXMXMX",
"MXMXMXMXMXO 2 b.).H.C.C.D.D.K.L.K.P.P.K.D.K.A.A.A.Z.F.Y.^.k + = a 7 ^ ^.Y.U.I.P.K.K.Z.Z.P.P.G.K.K.P.P.P.S.C.G.R.b.2 X MXMXMXMXMX",
"MXMXMXMXMXO 3 B.E.H.G.G.G.H.H.T.T.H.T.H.T.I.P.C.C.G.T.).aXl 5 u > = l _.).E.H.R.H.I.P.I.I.T.H.H.H.H.H.G.G.C.P.E.b.2 X MXMXMXMXMX",
"MXMXMXMXMXO 2 B.E.H.G.H.T.W.E.E./././.(.'./.W.R.H.H.W.).aX^ 4 a = + k ^.).W.W./././.).E.).(.(./././.E.U.G.C.G.Y.b.2 X MXMXMXMXMX",
"MXMXMXMXMX  2 m.E.I.P.T.Y.B.V.V.yXyXyXyXtXtXfXtXV.V./._.^.^ 7 7 = = j ].W.W.V.V.yXtXtXtXtXtXtXtXtXtX^./.E.G.F.Y.m.1 o MXMXMXMXMX",
"MXMXMXMXMX  3 v.E.H.I.E.y.g g g 6 6 d h h h h h g 6 i.dX_.M.s.l.N.a.s.Y.R.y.g 6 6 6 6 6 h h h h 6 j g y.U.H.F.~.m.1 o MXMXMXMXMX",
"MXMXMXMXMX  < v.E.T.T.'./ = > - : : : : ; ; ; ; ; * 4.uXjXjXkXjXkXsXhXfXhX3.* * : 8 8 8 8 ; ; 8 ; > = / /.U.T.~.n.3 . MXMXMXMXMX",
"MXMXMXMXMX  , v.~.R.E.fX2.- w n M b M M M M b n r e 6.pXqX0X0Xk.rX0X0X0XpX6.9 e r b M S M b M b v 9 * 1.dXE.T.~.n., . MXMXMXMXMX",
"MXMXMXMXMX. , v.).U.E.dX2.- r N K Z H Z D D Z N r r y p p f f f f f f f p 9 9 r B Z J A A A Z K N w - 1.dXR.Y.~.n., . MXMXMXMXMX",
"MXMXMXMXMXo < v.E.T.E.fX2.: r S J Z H F D F H M b r r r 9 8 8 8 ; 8 8 9 e i i V B F J J Y F F A N r - 2.fXW.T.Q.n.,   MXMXMXMXMX",
"MXMXMXMXMXO 2 m.).T.E.dX2.; e Z A A A A D A H Z M V V V V i i i i V V V M M M M Z A L J J Y Y Y S r : 2.dXR.W.).m.3 X MXMXMXMXMX",
"MXMXMXMXMXo 3 m.Y.T.R.dX1.- e S Y A A D D D F J H D H H P B L L Z D F F F Y Y F F F A L L Y A L S r : 1.dXW.R.).m.3 X MXMXMXMXMX",
"MXMXMXMXMXo , v.Y.H.T._.1.* i B A Y G A D D F F F L L F D D D F F D F F F F F G F Y L D A T G L B i : 1.dXR.T.Y.v.3   MXMXMXMXMX",
"MXMXMXMXMX  , v.U.I.H._.1.* e B Y Y Y F Z F F F G G F G G D D D D G G G F Y T T F F D D D F G L B e * 1._.R.H.Y.m.3 X MXMXMXMXMX",
"MXMXMXMXMX  3 v.~.U.T.'.1.* e B Y Y Y G G G Y T T T G G G G G F G F F G Y Y T G F G G F D D D D V e * 1.(.R.T.~.m.2 X MXMXMXMXMX",
"MXMXMXMXMXX 3 n.~.U.T.dX1.* e B G Y Y Y Y Y G G G T G G Y G G G G F F T Y Y F F G G D F G G D D B e - 1.dXE.E.~.n.4 O MXMXMXMXMX",
"MXMXMXMXMXo 4 wXaX~.'.fX1.- 9 B A Y Y Y G Y Y Y G F F F A G G F F Y F G F F F G G D G G D D F A B e - 2.fX).~.aXwX4 O MXMXMXMXMX",
"MXMXMXMXMXO a eXsXsXsXjX2.- e B A A A Y A Y Y Y Y F F F A A A A F A Y F Y F F A F F L D D L F J B e ; 2.kXaXaXsXeXa o MXMXMXMXMX",
"MXMXMXMXMX@ s rXeXwXwXeX6.u w b K J J J J A A J J J J J J K K J J A J J J J J J J J H J J J A K N q u <.eXwXwXwXrXs @ MXMXMXMXMX",
"MXMXMXMXMX@ % s a a a a s u q q x v v v b b b n n n n n v v v v v v v v v b v b n n n n b b b v v x 0 s a 4 4 a a @ @ MXMXMXMXMX",
"MXMXMXMXMX@ @ @ @ O X # % 0 t t q q q q x x x x x q x t q q q t q q q q x x x x x x x x x x x x c c 0 % @ o o o @ @ @ MXMXMXMXMX",
"MXMXMXMXMXMXMXMXMXMXMXMXMXMXMXMXMXMXMXMXMXMXMXMXMXMXMXMXMXMXMXMXMXMXMXMXMXMXMXMXMXMXMXMXMXMXMXMXMXMXMXMXMXMXMXMXMXMXMXMXMXMXMXMX",
"MXMXMXMXMXMXMXMXMXMXMXMXMXMXMXMXMXMXMXMXMXMXMXMXMXMXMXMXMXMXMXMXMXMXMXMXMXMXMXMXMXMXMXMXMXMXMXMXMXMXMXMXMXMXMXMXMXMXMXMXMXMXMXMX",
"MXMXMXMXMXMXMXMXMXMXMXMXMXMXMXMXMXMXMXMXMXMXMXMXMXMXMXMXMXMXMXMXMXMXMXMXMXMXMXMXMXMXMXMXMXMXMXMXMXMXMXMXMXMXMXMXMXMXMXMXMXMXMXMX",
"MXMXMXMXMXMXMXMXMXMXMXMXMXMXMXMXMXMXMXMXMXMXMXMXMXMXMXMXMXMXMXMXMXMXMXMXMXMXMXMXMXMXMXMXMXMXMXMXMXMXMXMXMXMXMXMXMXMXMXMXMXMXMXMX",
"MXMXMXMXMXMXMXMXMXMXMXMXMXMXMXMXMXMXMXMXMXMXMXMXMXMXMXMXMXMXMXMXMXMXMXMXMXMXMXMXMXMXMXMXMXMXMXMXMXMXMXMXMXMXMXMXMXMXMXMXMXMXMXMX"
};
