/* XPM */
static char *xpm_[] = {
/* columns rows colors chars-per-pixel */
"64 64 223 2 ",
"   c #221F34",
".  c #222034",
"X  c #2A253A",
"o  c #26243A",
"O  c #372A38",
"+  c #4D2C2B",
"@  c #522C25",
"#  c #51202A",
"$  c #5B322B",
"%  c #573029",
"&  c #45283B",
"*  c #432A36",
"=  c #512E36",
"-  c #4A3335",
";  c #563135",
":  c #5B393D",
">  c #61362F",
",  c #743B28",
"<  c #653931",
"1  c #6C3C36",
"2  c #732931",
"3  c #7C462D",
"4  c #7D4A3A",
"5  c #2D2C47",
"6  c #2F304F",
"7  c #2B2F54",
"8  c #2B3054",
"9  c #2E335A",
"0  c #323154",
"q  c #36385B",
"w  c #372F43",
"e  c #363B65",
"r  c #3B3D63",
"t  c #493647",
"y  c #493950",
"u  c #6D3C50",
"i  c #473863",
"p  c #3D426C",
"a  c #3E4573",
"s  c #59435D",
"d  c #69464C",
"f  c #7B4947",
"g  c #664C5C",
"h  c #6D515E",
"j  c #72525B",
"k  c #77475A",
"l  c #43446C",
"z  c #494569",
"x  c #5A4E6B",
"c  c #584966",
"v  c #414773",
"b  c #434976",
"n  c #464B79",
"m  c #4A4D7B",
"M  c #4B4A75",
"N  c #554C70",
"B  c #4D517D",
"V  c #5C577E",
"C  c #5C597E",
"Z  c #575278",
"A  c #5D5069",
"S  c #624E62",
"D  c #624E6B",
"F  c #6E5663",
"G  c #6A5469",
"H  c #775B69",
"J  c #645779",
"K  c #675776",
"L  c #725C70",
"P  c #674171",
"I  c #7E646E",
"U  c #943E0F",
"Y  c #93221D",
"T  c #9B251C",
"R  c #8B3D17",
"E  c #973F10",
"W  c #A83319",
"Q  c #8D2F31",
"!  c #8D3132",
"~  c #AC392A",
"^  c #C23934",
"/  c #9C4213",
"(  c #AD4800",
")  c #A84712",
"_  c #AB4A13",
"`  c #A54713",
"'  c #B24B13",
"]  c #B94F13",
"[  c #BA5519",
"{  c #864229",
"}  c #8E4C2E",
"|  c #AC5626",
" . c #B65626",
".. c #B44F37",
"X. c #AA6237",
"o. c #B96737",
"O. c #B3612D",
"+. c #C55819",
"@. c #CF5B12",
"#. c #C3621E",
"$. c #DA6614",
"%. c #FF7406",
"&. c #FF7B05",
"*. c #F87418",
"=. c #EB6C0E",
"-. c #C35C20",
";. c #C96121",
":. c #DA6E2D",
">. c #D66725",
",. c #CA6A36",
"<. c #D26C32",
"1. c #D57A2F",
"2. c #E06F29",
"3. c #E66F23",
"4. c #EA772D",
"5. c #F2782D",
"6. c #EA7C36",
"7. c #F57E32",
"8. c #E46F3D",
"9. c #88544A",
"0. c #945A48",
"q. c #955947",
"w. c #8C5250",
"e. c #A25F46",
"r. c #BA5147",
"t. c #966455",
"y. c #8C6059",
"u. c #A8674C",
"i. c #B86B47",
"p. c #A46953",
"a. c #BB6853",
"s. c #845E64",
"d. c #965D61",
"f. c #8C6A66",
"g. c #AC7368",
"h. c #C24D43",
"j. c #C65446",
"k. c #F85354",
"l. c #F75C5A",
"z. c #C56845",
"x. c #C87544",
"c. c #D47941",
"v. c #D57440",
"b. c #D66D58",
"n. c #DA735D",
"m. c #C56558",
"M. c #E27F5D",
"N. c #F6635E",
"B. c #DB7C66",
"V. c #CC706B",
"C. c #F37167",
"Z. c #FF8407",
"A. c #FF9612",
"S. c #FFA01E",
"D. c #EF8237",
"F. c #ED823A",
"G. c #F68234",
"H. c #F1933B",
"J. c #F8AF35",
"K. c #FFC73C",
"L. c #AB8A73",
"P. c #C88357",
"I. c #DD8B45",
"U. c #ED884A",
"Y. c #EEA555",
"T. c #D78575",
"R. c #EA8A78",
"E. c #E8947C",
"W. c #E58E61",
"Q. c #FFE356",
"!. c #5B4A87",
"~. c #545783",
"^. c #545883",
"/. c #5B5485",
"(. c #4F4E81",
"). c #654787",
"_. c #685695",
"`. c #7A5393",
"'. c #7C4692",
"]. c #7754A4",
"[. c #8655AC",
"{. c #965ABA",
"}. c #8E55AE",
"|. c #9761BB",
" X c #A5699D",
".X c #C96691",
"XX c #9A5EC0",
"oX c #A95DC8",
"OX c #B05FCF",
"+X c #9C63C2",
"@X c #A862CC",
"#X c #B865DA",
"$X c #AF61D0",
"%X c #BF68E1",
"&X c #C168E3",
"*X c #A0939E",
"=X c #AA9884",
"-X c #ABA59F",
";X c #BAA38A",
":X c #AB9DA0",
">X c #9DABB3",
",X c #8C8498",
"<X c #ED9984",
"1X c #D5B495",
"2X c #F1A28F",
"3X c #F1A791",
"4X c #F4B699",
"5X c #E0A88C",
"6X c #CCB1A9",
"7X c #FDCCA4",
"8X c #F6C6A3",
"9X c #FCD7AB",
"0X c #FEDFB0",
"qX c #FACCB1",
"wX c #FFE1B2",
"eX c #F6C39C",
"rX c #C8BEC3",
"tX c #B6C6DC",
"yX c #FEDFC1",
"uX c #FFE0C2",
"iX c #CCDBFB",
"pX c #C8CADE",
"aX c none",
/* pixels */
"aXaXaXaXaXaXaXaXaXaXaXaXaXaXaXaXaXaXaXaXaXaXaXaXaXaXaXaXaXaXaXaXaXaXaXaXaXaXaXaXaXaXaXaXaXaXaXaXaXaXaXaXaXaXaXaXaXaXaXaXaXaXaXaX",
"aXaXaXaXaXaXaXaXaXaXaXaXaXaXaXaXaXaXaXaXaXaXaXaXaXaXaXaXaXaXaXaXaXaXaXaXaXaXaXaXaXaXaXaXaXaXaXaXaXaXaXaXaXaXaXaXaXaXaXaXaXaXaXaX",
"aXaXaXaXaXaXaXaXaXaXaXaXaXaXaXaXaXaXaXk.k.aXaXaXaXaXaXaXaXaXaXaXaXaXaXaXaXaXaXaXaXaXaXaXaXaXaXaXaXaXaXaXaXaXaXaXaXaXaXaXaXaXaXaX",
"aXaXaXaXaXaXaXaXaXaXaXaXaXaXaXaXaXaXaXl.l.k.aXaXaXaXaXaXaXaXaXaXaXaXaXaXaXaXaXaXaXaXaXaXaXaXaXaXaXaXaXaXaXaXaXaXaXaXaXaXaXaXaXaX",
"aXaXaXaXaXaXaXaXaXaXaXaXaXaXaXaXaXaXaX<XC.k.aXaXaXaXaXaX^.^.^.aXaXaXaXaXaXaXaXaXaXaXaXaXaXaXaXaXaXaXaXaXaXaXaXaXaXaXaXaXaXaXaXaX",
"aXaXaXaXaXaXaXaXaXaXaXaXaXaXaXk.aXaXaX<XR.R.aXaXaXaX^./.^.^.~.~.^.aXaXaXaXaXaXaXaXaXaXaXaXaXaXaXaXaXaXaXaXaXaXaXaXaXaXaXaXaXaXaX",
"aXaXaXaXaXaXaXaXaXaXaXaXaXaXaXaXk.aXaXR.<X2XaXaXaXs.r m ~.^.^.^.^.^.aXaXaXaXaXaXaXaXaXaXaXaXaXaXaXaXaXaXaXaXaXaXaXaXaXaXaXaXaXaX",
"aXaXaXaXaXaXaXaXaXaXaXaXaXaXaXaXaXl.N.R.3X4X4X3XE.g.t q M B ^.^.^.^.^.aXaXaXaXaXaXaXaXaXaXaXaXaXaXaXaXaXaXaXaXaXaXaXaXaXaXaXaXaX",
"aXaXaXaXaXaXaXaXaXaXaXaXaXaXk.aXaXaXE.2X8X0XwXwX4XT.T.O q n ^.^.^.~.~.~.aXaXaXaXaXaXaXaXaXaXaXaXaXaXaXaXaXaXaXaXaXaXaXaXaXaXaXaX",
"aXaXaXaXaXaXaXaXaXaXaXaXaXaXaXk.C.<X2X8XL.f.wXwX0XeXT.w e a n ~.^.~.~.~.n aXaXaXaXaXaXaXaXaXaXaXaXaXaXaXaXaXaXaXaXaXaXaXaXaXaXaX",
"aXaXaXaXaXaXaXaXaXaXaXaXaXaXaX^ h.m.2X8X1X;XwXwXwX9X5XO q a b ~.~.~.~.~.B aXaXaXaXaXaXaXaXaXaXaXaXaXaXaXaXaXaXaXaXaXaXaXaXaXaXaX",
"aXaXaXaXaXaXaXaXaXaXaX%.%.aXaXY Y ! B.4XeX8XwXwX1X;X=X0 e a a ~.~.~.~.~.~.~.aXaXaXaXaXaXaXaXaXaXaXaXaXaXaXaXaXaXaXaXaXaXaXaXaXaX",
"aXaXaXaXaXaXaXaXaXaXaXaXaXaXaXT Y Y Y V.T.E.9X9Xf.X X a a a n ~.~.~.~.~.~.m a aXaXaXaXaXaXaXaXaXaXaXaXaXaXaXaXaXaXaXaXaXaXaXaXaX",
"aXaXaXaXaXaXaXaXaXaXaXaXaXaXaXaXY Q i D g.R.<X8X1Xy.X p a n ~.~.~.~.~.~.~.~.^.aXaXaXaXaXaXaXaXaXaXaXaXaXaXaXaXaXaXaXaXaXaXaXaXaX",
"aXaXaXaXaXaXaXaXaXaXaXaXaXaXaXaX! u c M K d...a.r.4 X p a n ~.~.~.~.~.~.~.~.(.a aXaXaXaXaXaXaXaXaXaXaXaXaXaXaXaXaXaXaXaXaXaXaXaX",
"aXaXaXaXaXaXaXaXaXaXaXaXaXaXaXaXu u N N N s 2 $ 2 # X p a n ~.~.~.~.~.~.~.~.(.a aXaXaXaXaXaXaXaXaXaXaXaXaXaXaXaXaXaXaXaXaXaXaXaX",
"aXaXaXaXaXaXaXaXaXaXaXaXaXaXaXT T Q K K K J z w O X w r p v ~.~.~.~.^.^.(.~.m a a aXaXaXaXaXaXaXaXaXaXaXaXaXaXaXaXaXaXaXaXaXaXaX",
"aXaXaXaXaXaXaXaXaXaXaX%.%.aXaXW T Q L P K J J Z Z Z M w o 0 a ~.^.~.^.^.n b b a a 6 . aXaXaXaXaXaXaXaXaXaXaXaXaXaXaXaXaXaXaXaXaX",
"aXaXaXaXaXaXaXaXaXaXaXaXaXaX%.=.>.z.g.w.k K J J J /.C z z M B ^.~.~.^.^.(.B ~.m B p 0 . aXaXaXaXaXaXaXaXaXaXaXaXaXaXaXaXaXaXaXaX",
"aXaXaXaXaXaXaXaXaXaXaXaXaXaX&.A.H.n.B.h.! u w.w.G V C ~.V ~.V ^.~.~.~.~.~.~.~.~.^.B z q aXaXaXaXaXaXaXaXaXaXaXaXaXaXaXaXaXaXaXaX",
"aXaXaXaXaXaXaXaXaXaXaXaXaX&.A.J.Y.B.n.j.~ W +.' q.H I H J ~.^.^.~.~.~.~.~.~.~.~.^.^.^.^.^.aXaXaXaXaXaXaXaXaXaXaXaXaXaXaXaXaXaXaX",
"aXaXaXaXaXaXaXaXaXaXaXaX&.A.K.Y.W.b.h.~ [ +.5.[ >.G.6.>.s.^./.^.^.~.~.^.~.^.^.~.^.^.~.^.^.^.^.^.aXaXaXaXaXaXaXaXaXaXaXaXaXaXaXaX",
"aXaXaXaXaXaXaXaXaXaXaXaX%.&.U.W.b.j.h.-.-.+.7.4.5.G.G.G.8.x.x.} i.f.~.~.~.~.~.~.~.~.~.~.^.^.^.^.aXaXaXaXaXaXaXaXaXaXaXaXaXaXaXaX",
"aXaXaXaXaXaXaXaXaXaXaXaX5.6.M.b.j.h.h.I.2.$.>.5.3.>.G.G.G.4.;.>.5.x.g.p.s.d.f.~.~.~.~.~.^.^.^.aXaXaXaXaXaXaXaXaXaXaXaXaXaXaXaXaX",
"aXaXaXaXaXaXaXaXaXaXaXaXaXn.n.j.j.c.<.J.S.=.] >.[  .G.G.4.>.;.G.G.G.7.M.,.,.z.I ^.^.^.^.^.^.aXaXaXaXaXaXaXaXaXaXaXaXaXaXaXaXaXaX",
"aXaXaXaXaXaXaXaXaXaXaXaXaXB.h.j.U.K.&.&.%.aX' ' 1 f 7.G.;.+.G.G.G.G.U.R.z.| +.G.aXaXaXaXaXaXaXaXaXaXaXaXaXaXaXaXaXaXaXaXaXaXaXaX",
"aXaXaXaXaXaXaXaXaXaXaXaXaXj.aXaXaXaXaXaX@.' ' ' / , d g c d.R.8X7X9X7XqXqXP._ [ _ aXaXaXaXaXaXaXaXaXaXaXaXaXaXaXaXaXaXaXaXaXaXaX",
"aXaXaXaXaXaXaXaXaXaXaXaXaXaXaXaXaXaXaX+.] ' _ ' / R < q v V g.*X*X6XuXuX*XI 4 _ _ aXaXaXaXaXaXaXaXaXaXaXaXaXaXaXaXaXaXaXaXaXaXaX",
"aXaXaXaXaXaXaXaXaXaXaXaXaXaXaXaXaXaXaX#._ _ ) ' / U R P m M (.~.^.,X6X6XC c 4 ` aXaXaXaXaXaXaXaXaXaXaXaXaXaXaXaXaXaXaXaXaXaXaXaX",
"aXaXaXaXaXaXaX%.%.aXaXaXaXaXaXaXaXaXQ.1.] _ U ) / R / oX].m (.(.~.(.m v n 4 ` ` aXaXaXaXaXaXaXaXaXaXaXaXaXaXaXaXaXaXaXaXaXaXaXaX",
"aXaXaXaXaXaXaXaXaXaXaXaXaXaXaXaX%.&.aX[ _ ) U E U , w i }.@XXXn a m ^.~.).w._ aXaXaXaXaXaXaXaXaXaXF.} . . . aXaXaXaXaXaXaXaXaXaX",
"aXaXaXaXaXaXaXaXaXaXaXaXaXaXaXaXaXaXaXaX' _ ` U U , 0 0 P {.$X).].|.|.|.).c d aXaXaXaXaXaXaXaXD.D.t.0.4 . . aXaXaXaXaXaXaXaXaXaX",
"aXaXaXaXaXaXaXaXaXaXaXaXaXaXaXaXaXaXaXaXaX' _ ` / , 0 q l _.}.).@X&X&X&X).e aXaXaXaXaXaXaXaXx.p.u.A t.o.. . aXaXaXaXaXaXaXaXaXaX",
"aXaXaXaXaXaXaXaXaXaXaXaXaXaXaXaXaXaXaXaXaXaXaX_ _ { 0 v /./.).[.oX%X&X#X).(.aXaXaXaXaXaXc.c.t.a a a t.o.. . . aXaXaXaXaXaXaXaXaX",
"aXaXaXaXaXaXaXaXaXaXaXaXaXaXaXaXaXaXaXaXaXaXaXaX' R 0 p }.#X#X#X}.{.OX'.@X].(.aXaXaXaXc.A z b a a a t.o.. . . . aXaXaXaXaXaXaXaX",
"aXaXaXaXaXaXaXaXaXaXaXaXaXaXaXaXaXaXaXaXaXaXaXaXt y 8 p _.|.&X&XoX.XV.OX%X@X[.a aXaXaXaXM a j i.i.A A y.X.O . . aXaXaXaXaXaXaXaX",
"aXaXaXaXaXaXaXaXaXaXaXaXaXaXaXaXaXaXaXaXaXaXaXaX0 6 0 a B _.+X#X+XV.8.{.#X@X`.d aXaXaXaXa a y.D.F.p.G F F.- . . aXaXaXaXaXaXaXaX",
"aXaXaXaXaXaXaXaXaXaXaXaXaXaXaXaXaXaXaXaXaXaXaXt t t t g H K _.@X_.u.2.H {.`.d _ aXaXaXaXa x p.D.D.D.t.F F.- . . . aXaXaXaXaXaXaX",
"aXaXaXaXaXaXaXaXaXaXaXaXaXaXaXaXaXaXaXaXaXaXaX_ _ _ ' *.*.i.^.^.^.p.*.*.H 9._ aXaXaXaXaXa i.F.F.D.H.t.F 1.- o . . aXaXaXaXaXaXaX",
"aXaXaXaXaXaXaXaXaXaXaXaXaXaXaXaXaXaXaXaXaXaXaXaX: t t g j 0.<.<.<.e.j j o.0.s aXaXaXaXaXaXG p.1.h F c l F X.: . . aXaXaXaXaXaXaX",
"aXaXaXaXaXaXaXaXaXaXaXaXaXaXaXaXaXaXaXaXaXaXaXaX8 9 e a a S X.@.X.F m m O.9.a aXaXaXaXaXaXa y.x.a a a a l P.X.3 3 aXaXaXaXaXaXaX",
"aXaXaXaXaXaXaXaXaXaXaXaXaXaXaXaXaXaXaXaXaXaXaX7 8 e a a a a z [ g (././.| f a aXaXaXaXaXaXa H u.a a x h F P.P.o.;.aXaXaXaXaXaXaX",
"aXaXaXaXaXaXaXaXaXaXaXaXaXaXaXaXaXaXaXaXaXaX7 8 p p a a ^.B S *.s.~.V ~.:.0.a aXaXaXaXaXaXa a v b l p.D.H.-X>XL.( aXaXaXaXaXaXaX",
"aXaXaXaXaXaXaXaXaXaXaXaXaXaXaXaXaX8 8 8 8 8 8 e a a a B ^.m S *.s.~.~.~.:.0.a a aXaXaXaXaXaXa A x.c.L.-X-X>Xg.| aXaXaXaXaXaXaXaX",
"aXaXaXaXaXaXaXaXaXaXaXaXaXaXaXaX7 7 7 7 7 7 e a n m m ^.V m A *.s.~.~.V :.0.a B aXaXaXaXaXaXaXg.6X1XrXtXtXL.X.aXaXaXaXaXaXaXaXaX",
"aXaXaXaXaXaXaXaXaXaXaXaXaXaXaXaX7 8 9 e e e a a m ~.~.~.~.m A *.s.~.~.^.:.0.n ~.aXaXaXaXaXaXaXW.iXiXiXpX6XO.aXaXaXaXaXaXaXaXaXaX",
"aXaXaXaXaXaXaXaXaXaXaXaXaXaXaXaXaX9 a a a a a a B ~.~.~.^.M h 3.I ~.~.~.:.0.n ~.n aXaXaXaXaXaXaXaXaXaXaX( aXaXaXaXaXaXaXaXaXaXaX",
"aXaXaXaXaXaXaXaXaXaXaXaXaXaXaXaXaXaXa a a a ~.~.~.~.~.~.n y.<.H C V ~.~.:.0.b ^.~.n a aXaXaXaXaXaXaXaXaXaXaXaXaXaXaXaXaXaXaXaXaX",
"aXaXaXaXaXaXaXaXaXaXaXaXaXaXaXaXaXaXa a n B B ^.^.^.^.^.n 9.2.C ~.~.~.^.1.0.a ^.~.B n aXaXaXaXaXaXaXaXaXaXaXaXaXaXaXaXaXaXaXaXaX",
"aXaXaXaXaXaXaXaXaXaXaXaXaXaXaXaXaXaXa n l l i l M ^.~.B v 0.2.C ~.~.~.~.:.0.n C B n aXaXaXaXaXaXaXaXaXaXaXaXaXaXaXaXaXaXaXaXaXaX",
"aXaXaXaXaXaXaXaXaXaXaXaXaXaXaXaXaXaXaX^.q . . . q B B n p 9.2.C ~.~.~.~.:.q.a M v aXaXaXaXaXaXaXaXaXaXaXaXaXaXaXaXaXaXaXaXaXaXaX",
"aXaXaXaXaXaXaXaXaXaXaXaXaXaXaXaXaXaXaXaXaXaX. . . 6 a a 6 3 2.J ~.~.~.V :.{ o X aXaXaXaXaXaXaXaXaXaXaXaXaXaXaXaXaXaXaXaXaXaXaXaX",
"aXaXaXaXaXaXaXaXaXaXaXaXaXaXaXaXaXaXaXaXaXaXaX. . X 5 5 X + } ,.I ~.L ,.{ * . aXaXaXaXaXaXaXaXaXaXaXaXaXaXaXaXaXaXaXaXaXaXaXaXaX",
"aXaXaXaXaXaXaXaXaXaXaXaXaXaXaXaXaXaXaXaXaXaXaXaX. . . .   O $  .u.e.e.} O . aXaXaXaXaXaXaXaXaXaXaXaXaXaXaXaXaXaXaXaXaXaXaXaXaXaX",
"aXaXaXaXaXaXaXaXaXaXaXaXaXaXaXaXaXaXaXaXaXaXaXaXaXaX. .   O = $  .$.| . . aXaXaXaXaXaXaXaXaXaXaXaXaXaXaXaXaXaXaXaXaXaXaXaXaXaXaX",
"aXaXaXaXaXaXaXaXaXaXaXaXaXaXaXaXaXaXaXaXaXaXaXaXaXaXaXaXaXaX> @ @ @ @ * aXaXaXaXaXaXaXaXaXaXaXaXaXaXaXaXaXaXaXaXaXaXaXaXaXaXaXaX",
"aXaXaXaXaXaXaXaXaXaXaXaXaXaXaXaXaXaXaXaXaXaXaXaXaXaXaXaXaX$ < > @ + & & aXaXaXaXaXaXaXaXaXaXaXaXaXaXaXaXaXaXaXaXaXaXaXaXaXaXaXaX",
"aXaXaXaXaXaXaXaXaXaXaXaXaXaXaXaXaXaXaXaXaXaXaXaXaXaXaXaX@ % < < > = & aXaXaXaXaXaXaXaXaXaXaXaXaXaXaXaXaXaXaXaXaXaXaXaXaXaXaXaXaX",
"aXaXaXaXaXaXaXaXaXaXaXaXaXaXaXaXaXaXaXaXaXaXaXaXaXaXaXaXaX% > < < ; & aXaXaXaXaXaXaXaXaXaXaXaXaXaXaXaXaXaXaXaXaXaXaXaXaXaXaXaXaX",
"aXaXaXaXaXaXaXaXaXaXaXaXaXaXaXaXaXaXaXaXaXaXaXaXaXaXaXaXaXaX@ < < ; & aXaXaXaXaXaXaXaXaXaXaXaXaXaXaXaXaXaXaXaXaXaXaXaXaXaXaXaXaX",
"aXaXaXaXaXaXaXaXaXaXaXaXaXaXaXaXaXaXaXaXaXaXaXaXaXaXaXaXaXaX@ < 1 ; & aXaXaXaXaXaXaXaXaXaXaXaXaXaXaXaXaXaXaXaXaXaXaXaXaXaXaXaXaX",
"aXaXaXaXaXaXaXaXaXaXaXaXaXaXaXaXaXaXaXaXaXaXaXaXaXaXaXaXaXaX@ $ > ; & aXaXaXaXaXaXaXaXaXaXaXaXaXaXaXaXaXaXaXaXaXaXaXaXaXaXaXaXaX",
"aXaXaXaXaXaXaXaXaXaXaXaXaXaXaXaXaXaXaXaXaXaXaXaXaXaXaXaXaXaXaX@ $ ; aXaXaXaXaXaXaXaXaXaXaXaXaXaXaXaXaXaXaXaXaXaXaXaXaXaXaXaXaXaX",
"aXaXaXaXaXaXaXaXaXaXaXaXaXaXaXaXaXaXaXaXaXaXaXaXaXaXaXaXaXaXaXaX@ aXaXaXaXaXaXaXaXaXaXaXaXaXaXaXaXaXaXaXaXaXaXaXaXaXaXaXaXaXaXaX"
};
