/* XPM */
static char *xpm_[] = {
/* columns rows colors chars-per-pixel */
"64 64 165 2 ",
"   c #25122E",
".  c #28122E",
"X  c #270E33",
"o  c #2A0E35",
"O  c #2D0F38",
"+  c #30073E",
"@  c #360C3E",
"#  c #271130",
"$  c #2A1335",
"%  c #2D1836",
"&  c #2F1439",
"*  c #2E1939",
"=  c #32143C",
"-  c #371E3F",
";  c #360E40",
":  c #3D1746",
">  c #361B41",
",  c #3B1B45",
"<  c #3F124B",
"1  c #3E1B49",
"2  c #3C2145",
"3  c #3E234A",
"4  c #410F4D",
"5  c #41124B",
"6  c #43194C",
"7  c #481D4E",
"8  c #471652",
"9  c #4A1552",
"0  c #431E50",
"q  c #4A1D53",
"w  c #511D59",
"e  c #402247",
"r  c #41234B",
"t  c #49254F",
"y  c #43294E",
"u  c #462453",
"i  c #4A2454",
"p  c #432850",
"a  c #4C2A55",
"s  c #4D235A",
"d  c #4E2959",
"f  c #51245B",
"g  c #542C5D",
"h  c #4E3257",
"j  c #523359",
"k  c #581E61",
"l  c #542660",
"z  c #542A62",
"x  c #592B69",
"c  c #5A3167",
"v  c #5F326B",
"b  c #63306A",
"n  c #63396D",
"m  c #623670",
"M  c #673975",
"N  c #6D3E7A",
"B  c #713F7C",
"V  c #644470",
"C  c #694174",
"Z  c #72417E",
"A  c #744A7F",
"S  c #773981",
"D  c #7A3F88",
"F  c #774384",
"G  c #7A4485",
"H  c #7C4A85",
"J  c #7D438A",
"K  c #7D4A89",
"L  c #803E8D",
"P  c #84478F",
"I  c #88428F",
"U  c #814C8C",
"Y  c #85548E",
"T  c #844592",
"R  c #894594",
"E  c #854992",
"W  c #8C4B97",
"Q  c #8E4699",
"!  c #8F4C9A",
"~  c #95479E",
"^  c #924B9E",
"/  c #984C9F",
"(  c #855591",
")  c #8A5094",
"_  c #885D91",
"`  c #8A5199",
"'  c #91509B",
"]  c #925C9C",
"[  c #94629F",
"{  c #916E9B",
"}  c #8F4CA0",
"|  c #954CA1",
" . c #994EA4",
".. c #9C4FA8",
"X. c #9652A2",
"o. c #9B54A5",
"O. c #955DA1",
"+. c #9A59A3",
"@. c #9C51A9",
"#. c #9D5EA8",
"$. c #A155AC",
"%. c #A35CAD",
"&. c #AA5BAF",
"*. c #A957B3",
"=. c #A65BB1",
"-. c #AA5DB5",
";. c #AE5EB9",
":. c #B05FBB",
">. c #9A61A4",
",. c #9A69A2",
"<. c #9E61A8",
"1. c #A16BA6",
"2. c #A563AD",
"3. c #A768AF",
"4. c #A676AE",
"5. c #A876AF",
"6. c #A679AE",
"7. c #A87DAE",
"8. c #A860B1",
"9. c #AA61B5",
"0. c #AA6DB2",
"q. c #AE61B9",
"w. c #AF62BB",
"e. c #B06FB6",
"r. c #B160B9",
"t. c #B162BC",
"y. c #B262BD",
"u. c #B269BC",
"i. c #AD71B3",
"p. c #AB74B2",
"a. c #AF75B2",
"s. c #AC7DB3",
"d. c #B174B6",
"f. c #B17BB6",
"g. c #B475BA",
"h. c #B976BD",
"j. c #B279B9",
"k. c #BA7ABE",
"l. c #BB7ABE",
"z. c #BC75C2",
"x. c #BD77C4",
"c. c #BE79C5",
"v. c #BE7AC4",
"b. c #C178C7",
"n. c #C17DC6",
"m. c #C07EC9",
"M. c #C47CCA",
"N. c #AB80B4",
"B. c #B583BD",
"V. c #B683BE",
"C. c #B685BD",
"Z. c #B786BE",
"A. c #B886BF",
"S. c #B885C0",
"D. c #BA85C0",
"F. c #BF8CC5",
"G. c #C481C7",
"H. c #C08EC7",
"J. c #C683C9",
"K. c #C782CA",
"L. c #C582CC",
"P. c #C091C7",
"I. c #C191C8",
"U. c #CB85D1",
"Y. c #D189D7",
/* pixels */
"J.J.J.J.G.G.J.J.J.J.G.J.J.J.J.J.L.L.J.J.J.J.J.J.J.J.J.J.J.J.J.J.J.J.G.J.J.m.u.:.z.X.1 1 $ s V.J.J.J.J.J.J.J.J.J.J.J.K.J.J.J.J.J.",
"n.n.n.n.n.n.n.n.n.n.n.n.n.n.n.n.v.v.m.m.n.n.n.n.n.n.n.n.b.b.n.n.n.n.n.n.n.v.9.%.9.X.u 3 $ d Z.G.k.k.n.n.n.b.n.n.n.n.n.b.n.n.n.n.",
"%.%.%.%.%.%.%.%.%.%.%.%.%.%.%.%.%.%.%.%.%.%.%.%.%.%.%.%.%.%.%.%.%.%.%.%.2.X.c g M m u 3 $ s A.f.n V +.%.%.%.%.%.%.%.%.%.%.%.%.%.",
"^ ^ ^ ^ ^ ^ ^ ^ ^ ^ ^ ^ ! ^ ! ^ | | | | | | | | | | | | | | ^ ! ^ ^ ^ ^ ^ L 5 : 0 u i 3 % s D.p.9 s R ^ ^ ^ | | | | | | ^ ^ ^ ^ ",
"^ ^ ^ ^ ^ ^ ^ ^ ^ ^ ^ ^ / ^ ^ / =.-.-.-.-.-.-.-.-.-.-.-.-.=.| ^ ^ ^ ^ ^ | ! K N i i u 3 $ s Z.z.E U ! ^ ^ / -.-.-.-.-.*./ ^ ^ ^ ",
"^ ^ ^ ^ ^ ^ ^ ^ ^ ^ | | ^ ^ ^ / -.w.q.q.q.q.t.r.q.;.t.;.w.-.Q ^ ^ ^ ^ ^ ^ ^ ^ T l s d 3 $ s Z.v.^ ^ ^ ^ ^  .-.r.q.t.t.-.| ^ ^ ^ ",
"^ ^ ^ ^ ^ ^ ^ | ^ o.=.=.=.%./ ^  . ..... .@.o....... ...o. .} ^ ^ | ^ ^ ^ ^ ^ ^ K N i 3 $ a V.v.] ^ ^ ^ ^ /  ...@...o.@.=.%./ ^ ",
"^ ^ ^ ^ / |  .| | @.-.r.r.&./ ^ | ^ ^ ! | } ^ ^ | ^ ^ ^ } | | ^ ^ ^ ^ ^ ^ ^ ^ | | T u 3 # s V.v.$.^ ^ ^ ^ ^ ^ ^ ^ ^ ^ X.8.*.| ^ ",
"! | ^  .=.-.=.-.-.=.@.@.@...^ ^ ^ ^ ^ ^ ^ ^ | ^ ^ ^ ^ ^ ^ ^ ^ ^ ^ ^ ^ ^ ^ ^ / / ! T u 3 * f Z.v.o.^ ^ ^ ^ ^ ^ ^ ^ ^ ^ | X.$.*.=.",
"| ! | o.-.:.;.:.;.%.| } | ! ^ ^ ^ ^ ^ ^ ^ | | X.| | ^ ^ ^ ^ ^ ^ ^ ^ ^ ^ ^ ! T T ! T 0 3 # f Z.z.^ R ^ ^ ^ ^ ^ ^ ^ ^ ^ ^ | o.-.;.",
"} ^ ^ |  .| | X. .| | ^ ^ ^ ^ ^ ^ ^ ^ ^ ^ | *.-.-.=.| ^ ^ | ^ ^ ! | ^ ^ ^ P q i } J u 3 % i Z.d.w g E | ^ ^ ^ ^ ^ ^ ^ ^ ^ ^  . .",
"^ ^ ^ ^ ^ ^ ^ ^ } } ^ ^ ^ ^ | ^ ^ ^ ^ ^ ^  .-.r.r.-.| ^ ^ ^ ^ ^ | ^ ^ ^ ^ T : > ! T u 1 # f Z.5.5 t T | ^ ^ ^ ^ ^ ^ ^ ^ ^ ^ ^ ^ ",
"| | ^ | ^ | | | | | ^ ^ | | | ^ | ^ | | | | ..o.@.o.| | | | | ^ | | | | | ! D L } T u 3 $ s Z.x.I L ^ ^ | ^ | | | ^ | | | | | ^ ",
"T P P P T P P P P P P P P P P T T T P P T T T T R E T P U E P T P P T T T T T U J F 3 2 $ i 4.5.) U P P P T P P P T U T P P P E ",
"r r r r r u r r y y t t r t r r 3 3 u r 3 3 r u r r r r 6 3 3 y 3 r r r 3 r r u p 3 % %   * h h t r r r u 3 r r r r r r y r r y ",
"6 6 6 6 6 6 5 4 8 ; @ o X $ 1 6 6 6 6 6 6 6 6 6 6 6 6 6 6 6 6 6 6 6 6 6 6 6 6 6 8 6 1 6 6 6 6 6 6 6 6 6 6 6 6 6 6 6 6 6 5 6 6 5 ",
"4.4.p.6.4.4.] O.O.H i 2 . 3 { 6.6.5.4.4.4.4.4.4.p.4.4.4.4.4.p.6.4.4.4.p.4.4.4.p.4.4.p.p.5.p.p.6.5.4.4.4.p.4.4.4.4.4.4.4.4.4.4.4.",
"L.L.L.L.L.L.t.9.3.( g p X i N.U.D.A.G.G.J.J.L.L.L.J.L.L.L.L.K.K.L.L.L.K.L.L.L.m.L.L.J.K.J.L.L.L.G.J.L.J.L.L.L.L.L.L.L.L.L.L.L.L.",
"@.@.+.+.+.@.@.Q k q i 3 X y s.h.b f $.$.+.$.o.+.o.+.o.o.+.o.o.o.o.$.o.+.+.X.o.o.o.+.o.+.o.+.o.o.o.o.o.+.@.+.o.o.@.+.+.o.o.o.o.+.",
"| ! ^ ^ | ! | T 1 > u u o u s.h.i 1 W ^ ^ ^ ^ ^ ^ ^ ^ ^ | ^ ^ ^ ^ ^ ^ ^ ^ | ^ ^ ^ | ^ ^ ^ | ^ ^ | | |  . .|  .| | | | | / ^ ^ | ",
"^ ^ ^ ^ ^ ^ | Q Z n d y X t s.v.H Z ^ / ^ ^ ^ ^ ^ ^ ^ ^ ^ ^ ^ } ^ ^ ^ ^ ^ ^ ^ ^ ^ ^ | ^ ^ ^ ^ ^ ^ o.*.-.*.=.-.-.*.%.^ ^ ^ ^ ^ ^ ",
"^ ^ ~ ^ ^ ^ ^ ^  .G g y X t s.M.+.^ ^ ^ ^ ^ ^ ^ ^ ^ ^ ^ ^ ^ ^ | ^ ^ ^ ^ ^ ^ } ^ | | ~ ~ ^ ~ ~ ^ ! o.:.u.t.u.t.t.r.8.^ ^ ^ ^ ^ ^ ",
"^ | =.;.-.-.| ^ ^ G f y X t s.M.o.^ ^ ^ ^ / *.-.-.=.| ^ ^ ^ } } ^ ^ ^ ^ ^ ^ ^ | |  .;.;.;.-.-.-.-.*. .|  .| | X.o.| ^ ^ ^ ^ ^ ^ ",
"^ | -.:.;.;.| ^ | G l y X t s.b.o.^ ^ ^ /  .-.;.q.*.| | | | | | ^ ^ ^ ^ ^ ^ ^ ! | ..:.;.;.t.;.;.t.-.| ^ ^ ^ | / ^ ^ | ^ ^ ^ ^ ^ ",
"^ ^ | o. .X.^ ^ | J l y X t s.M.o.^ ~ ^ ^ ' o.o.| $.-.-.-.-.;.=.| / ^ ^ ^ ^ ^ ^ ^ ^ X.X.X.o. .X.X.X.| ^ ^ ^ ^ ^ ^ ^ ^ ^ ^ ! ! | ",
"^ ^ | ^ ^ ^ ^ ^ T N d y X t s.b.W P ^ ^ ^ ^ ^ ^ ^ | 9.-.q.q.;.-.| ^ ^ ^ ^ ^ ^ ^ ^ ^ ^ ^ ^ | ^ ^ ^ ^ ^ ^ ^ ^ ^ ^ ^ ^ ^ | |  . .| ",
"^ ^ ^ ^ ^ ^ ^ P r 1 u 3 o i s.h.d , ^ ^ ^ ^ ^ ^ ^ | | o. .| X./ | ^ ^ ^ ^ ^ | ^ ^ ^ ^ ^ ^ ^ ^ | ^ ^ ^ ^ ^ ^ ^ ^ ^ ^ ^ | =.q.-.9.",
"^ ^ ^ ^ ^ ^ ^ P = = u p o i s.h.8 + ^ / ^ ^ ^ ^ ^ ^ ^ ^ ! | ! ^ / ^ ^ ^ ^ ^ ^ / ^ ^ ^ ^ ^ ^ ^ ^ ^ ^ ^ ^ | ^ ^ ^ ^ ^ ^ X.9.t.w.w.",
"^ / ^ ^ / ^ ^ P p u p y o 7 [ u.>.] ' ^ ^ ^ ^ ^ ^ ^ ^ ^ / ^ / ^ | | ^ ^ ^ | ^ ^ ^ / ^ ^ ^ / ^ ^ ^ ^ ^ / ^ ^ | ^ ^ X.| | X.@.@. .",
"U U U U U U U A a y u 3 $ , _ <.>.>.U K U U U U U U U U U U U U U U U K K U U U U U U U U U U U U U U K U U K U U K K K K K K K ",
"5 < 5 < < < < : & & O o X O 6 9 9 9 < 5 5 5 5 < 5 5 5 5 < : 5 5 6 6 6 6 5 < < 5 5 5 : 5 < < 5 < 5 5 6 5 < 5 5 < 5 < < < < < 8 5 ",
"2 2 2 2 2 2 2 2 , 2 2 2 2 2 2 2 2 2 2 , 2 2 2 2 2 2 2 , 2 2 2 2 % #   . 2 2 2 2 2 2 2 2 2 2 , 2 2 2 2 2 2 2 2 2 2 2 2 2 2 2 2 3 ",
"p.p.p.i.s.i.i.i.p.p.p.p.p.p.p.p.p.p.p.p.p.p.d.p.p.p.p.p.p.p.s.,.g , X 6 7.d.p.p.p.p.p.p.p.p.p.p.p.p.p.p.p.p.p.p.p.p.p.p.p.p.p.p.",
"U.U.U.U.U.U.U.U.U.U.U.U.U.U.U.U.U.U.U.U.U.U.U.U.U.U.U.U.U.U.Y.z.v r % q P.J.Y.U.U.U.U.U.U.U.U.U.U.U.U.U.U.U.U.U.U.U.U.U.U.U.U.U.",
"X.X. .X. .X.| X.X.o. . .o.X.o.X. .X.o.o.| o.X.X.X. .X.X.o.W > , u 3 $ q P.d.a t ^ o.X. .X.| X.o.X. . .X. .o. . . .o.X.| | o.o.| ",
"^ | } ^ ^ | ^ ^ ^ ^ ^ ^ ^ | ^ ^ ^ ^ ^ ^ | / / / | / | | ^ T & > u 3   r P.d.i 2 Q ^ | ^ | ^ / ^ ^ ^ ^ | ^ ^ ^ ^ ^ ^ | | | | | | ",
"^ ^ ^ ^ ^ ^ ^ ^ ^ ^ | Q ^ ^ ^ ^ ^ ^ ^ | -.;.-.-.;.-.-.-.| ! T D l 3 # 7 H.b.$.o.| ^ ^ ^ ^ ^ ^ ^ ^ | ^ ^ ^ ^ ^ ^ ^  .-.-.;.-.;.-.",
"^ ^ ^ ^ ^ ^ ^ ^ ^ ^ ^ | ^ | ^ ^ | | |  .-.:.:.r.r.r.r.-. .} ` K l 3 # 7 H.M.u.=.| ^ ^ ^ ^ ^ | ^ | | ^ | ^ | ^ ^ ^ o.r.r.:.r.r.r.",
"^ ^ | ^ ^ ^ ^ ^ | } | ^ ^ ^ ^ | =.-.-.=.........o...o.X.| Q x z s 3 $ 7 F.b.@.o.^ ^ ^ | ^ X.-.-.*.@. .} | } ^ ^ ^ | | ......o.o.",
"^ ^ ^ ~ | ^ ^ ^ ^ ! ! / ^ ^ ^ X.-.q.q.-.| ^ ^ ^ ^ ^ ^ ^ | R 0 u i 3 o 7 P.v.X./ ^ ^ ^ ^ | o.r.r.q.-. .| } | ^ ^ ^ | ^ ^ ^ ^ ^ ^ ",
"^ | -.%.| ^ ^ | ^ ^ ^ ^ ^ ^ ^ ^ | | | | | | } ^ ^ ^ ^ ' ^ W p d i 3 $ q H.v.o.^ ^ ^ ^ ^ ^ ^ | | | @.-.;.;.=./ ^ ^ ^ | ^ ^ ^ ^ ^ ",
"| | -.*. .|  .| ^ ^ ^ ^ ^ ^ ^ ^ ^ | } } | ^ ^ ^ ^ ^ ^ ^ ^ T 3 u u 3 # u H.z.) U ! ^ ^ ^ ^ ^ ^ ^ | X.-.;.q.=./ ^ ^ ^ ^ ^ ^ ^ ^ ^ ",
"^ ^ | o.-.-.-.*.| / ^ ^ ^ ^ ^ ^ ^ ^ | ! ^ ^ ^ ^ ^ ^ ^ ^ / T $ * u 3 # 0 I.d.w q Q ^ ^ ^ ^ ^ ^ ^ | ^ | |  .| ^ ^ ^ ^ ^ ^ | ^ ^ ^ ",
"^ ^ ^ o.-.t.r.-.^ ^ ^ ^ ^ ^ ^ ^ ^ ^ ! | ^ ^ ^ ^ ^ ^ ^ ^ ^ T % , u 3 X q P.d.i 2 W ^ ^ ^ ^ ^ ^ ^ ^ ^ | } | | ^ ^ ^ ^ ^ ^ ^ ^ ^ ^ ",
"W ^ ^ ' X./ X.X.^ ^ ^ ^ ^ ^ ^ ^ W ^ ^ ^ ^ ^ ^ ! ^ ^ ! ^ } ! G N g 2 $ 7 F.v.+.' ^ ^ ^ ^ W ^ ^ ^ ! ^ ! ^ ^ ! ^ / ^ ^ ^ ^ ^ ^ ^ ^ ",
"^ ^ W ^ ! ! ^ W ! ^ W ^ W W W ^ ^ ^ W ! ^ ^ ! ! ! ^ W ^ ! | | T z 2 $ 7 H.D.u.-.^ W ^ ^ ^ W W ^ ! ! ^ ! ! ^ W W W W W ^ ! ! ! ! ",
"$ $ $ $ $ $ $ $ % $ $ $ $ % $ $   % % % % % $ $ $ $ % X $ $ % $ $ .   . & & % & # % $ % $ % $ % % $ $ $ $ $ $ $ $ $ $ $ % # % % ",
"e e e 6 e e r 2 e e 6 e e e r e e e 2 5 e 2 2 6 e e r 6 3 2 3 , 2 2 3 3 e e e r e e , , , , % % $ * , r e e r r e e r e r 2 r , ",
"d.d.d.d.g.d.d.u.g.d.g.e.g.z.p.g.d.d.d.d.d.d.d.d.d.g.e.e.g.d.d.z.g.g.d.g.g.j.d.d.d.e.$.%.$.` l 3 o h 1.g.g.g.g.g.d.d.g.d.d.j.g.d.",
"G.m.G.v.M.A.v.H.H.z.F.c.x.c.F.c.L.v.v.F.c.c.M.D.c.F.L.c.M.c.c.F.F.v.v.D.c.v.v.M.v.x.9.=.<.( d 3 o j f.G.7.f.b.n.n.M.M.D.v.v.F.v.",
"+.o.+.@.o.o.$.o.o.@.X.o.@.@.@.o.o.+.@.o.@.+.@.@.@.o.#.@.@.X.X. .@.@.@.@.#.@.X.o.@.X...J l 1 i 3 o j f.0.t g ' +.o.o.o.o.@.@.@.@.",
"| ^ ^ } ^ ^ ^ ^ | ! | | ! Q } | ^ ^ / ^ | | } | | } | } | | | } | } | ! | } } ! ^ | | S < ; a 3 o j j.3.@ 9 I ^ ^ ^ / ^ ! ! | } ",
"! | ^ ^ ^ ^ ^ ^ ^ ^ ^ ^ | | ! | ^ ^ ^ ^ ^ ^ | | -.w.w.w.w.w.z.*.| } ^ ^ ! | ^ ^ ^ ^ | ! E F d p o j j.k.Y U ^ ^ ^ ^ ^ ^ | ! } | ",
"^ } ^ ^ | | | | | ^ ^ ^ | ! | } ^ ^ ^ |  . .|  .;.;.;.;.w.w.;.;.| | ^ ^ | ^ ^ ^ ^ ^ ^ ^ | K s 3 o j j.z.| | | ^ ^ ^ ^ ^ | | ^ ^ ",
"^ ^ ^  .*.=.-.%.| ^ ^ ^ ^ } ! | / ^ ^ | *.*.*.=.@.@.@.| X.....X.| | ^ ^ ^ ^ ^ ^ | ! ^ ^ } J l p o j j.v.| ^ | ^ ^ ^ | | =.@.| ! ",
" . . .@.-.:.r.-.| ^ ^ ^ ^ | ! | | | | $.-.q.;.-.| ^ ^ ^ | | ^ Q ! ! | ^ ^ ^ ^ ^ | | ! | } K l 3 o j g.x./ ^ ^ ^ ^ | | X.9.-.| ^ ",
"-.;.-.*. . . . .| | ^ } ^ ^ ^ | -.-.:.-. . . . .| ^ ^ ^ ^ ^ ^ ^ | } ! | ^ | ! | | ^ ^ | | K s 3 $ j j.z./ ^ ^ ^ ^  .-.*.o.| ^ ^ ",
":.r.q.*.| ^ ^ | | ^ ^ ^ ^ ^ | | -.:.:.-.| ^ ^ | | ^ ^ ^ ^ ^ | | | | | | | ! ^ } ^ ^ ^ ! } F g 3 o j g.h.W ! ^ ^ ^ ..:.-.| ^ ^ ^ ",
"^ ^ } ^ | ^ ^ ^ ! ^ ^ ^ ^ ^ ^ ^ ^ ^ ^ ^ ^ ^ ^ ^ ^ ^ ^ ^ ^ | r.r.;.;.t.-.} ^ ^ ^ ^ ^ | B ; = p 3 o d <./ . , T ^ ^ ^ ^ ^ ^ ^ ^ ^ ",
"^ ^ } ! ^ / ^ ^ | ^ ^ ^ ^ ^ ^ ^ ^ ^ ^ ^ ^ ^ ^ ^ ^ ^ ^ ^ | | q.q.-.;.;.-.^ ^ ^ ^ ^ ^ | N > ; u y $ d %.X.> i R ^ ^ ^ ^ ^ ^ | ^ ^ ",
"| | | | | | | ^ | | ^ | | | | | | | ^ | ^ | | | | | | | | | @.@.@.@...o.| | | ^ } |  .F d 3 a 3 o d %.;.^ ^ | | | ^ | / | | ^ | ",
"H H H H H H H H H H H H G H H H H H H H H H H H H H H H H G H K K H H H G H H H H K K C d 3 3 2 $ y ( O.>._ K H H H H H H H H H ",
": : : : : : : : : : : : : : : : : : 1 : : : : : : : , : : : : : : : : : : : < : : : : > & & % $ $ % 1 < 5 6 : : : : : : : : 5 , ",
"  $   #     $ # #   X   $   X   . X   # # # # # #   o       $ # # # $ # # X .   # # # X # #     .           .     $ . X     $ . "
};
