/* XPM */
static char *xpm_[] = {
/* columns rows colors chars-per-pixel */
"32 32 3 1 ",
"  c black",
". c white",
"X c None",
/* pixels */
"XXXXXXXXXXXXXXXXXXXXXXXXXXXXXXXX",
"XXXXXXXXXXXXXXXXXXXXX   XXXXXXXX",
"XXXXXXXXXXXXXXXXXXXXX .. XXXXXXX",
"XXXXXXXXXXXXXXXXXXXXX  .. XXXXXX",
"XXXXXXXXXXXXXX    XXX   . XXXXXX",
"XXXXXXXXXXXXXX    XXX   . XXXXXX",
"XXXXXXXXXXXXX      XX   . XXXXXX",
"XXXXXXXXXXXX .    . X   . XXXXXX",
"XXXXXXXXXXX ..    .. ..... XXXXX",
"XXXXXXXXXXX ........       XXXXX",
"XXXXXXXXXXX ...  ...     XXXXXXX",
"XXXXXXXXXX .        .  . XXXXXXX",
"XXXXXXXXX  ..  ..  ..  . XXXXXXX",
"XXXXXXX     ...  ...   . XXXXXXX",
"XXXXXX ...   .    .       XXXXXX",
"XXXXX .   . ..    .. .. .. XXXXX",
"XXXXX ... . ..    .. .. .. XXXXX",
"XXXXX ... . ..    ..    .. XXXXX",
"XXXXX ... .  ......    .. XXXXXX",
"XXXXX .   .              XXXXXXX",
"XXXXXX ...           . . XXXXXXX",
"XXXXXXX    .        .  . XXXXXXX",
"XXXXXXX                . XXXXXXX",
"XXXXXXXX .. ..    .. . . XXXXXXX",
"XXXXXXXXX                XXXXXXX",
"XXXXXXXXXXXXXXXXXXXXXXXXXXXXXXXX",
"XXXXXXXXXXXXXXXXXXXXXXXXXXXXXXXX",
"XXXXXXXXXXXXXXXXXXXXXXXXXXXXXXXX",
"XXXXXXXXXXXXXXXXXXXXXXXXXXXXXXXX",
"XXXXXXXXXXXXXXXXXXXXXXXXXXXXXXXX",
"XXXXXXXXXXXXXXXXXXXXXXXXXXXXXXXX",
"XXXXXXXXXXXXXXXXXXXXXXXXXXXXXXXX"
};
