/* XPM */
static char *xpm_[] = {
/* columns rows colors chars-per-pixel */
"64 64 51 1 ",
"  c #B7DBF9",
". c #BBDCFC",
"X c #BDE1FF",
"o c #BCE2FE",
"O c #BFE3FE",
"+ c #BBE4FD",
"@ c #BEE4FE",
"# c #C0E0FF",
"$ c #C1E1FF",
"% c #C0E3FF",
"& c #C1E3FF",
"* c #C0E4FF",
"= c #C2E5FF",
"- c #C4E7FF",
"; c #C3E8FF",
": c #C3EBFF",
"> c #C5EBFF",
", c #C7ECFF",
"< c #C8EAFF",
"1 c #C8ECFF",
"2 c #CAEFFF",
"3 c #CCEFFF",
"4 c #C7F0FF",
"5 c #C7F2FF",
"6 c #C8F0FF",
"7 c #CCF2FF",
"8 c #CAF5FF",
"9 c #CBF7FF",
"0 c #CFF4FF",
"q c #CEF5FF",
"w c #CDF7FF",
"e c #CEF7FF",
"r c #CFF7FF",
"t c #D0F2FF",
"y c #D0F6FF",
"u c #D6F7FF",
"i c #D7F7FF",
"p c #D8F7FF",
"a c #D2F8FF",
"s c #D7F8FF",
"d c #D8F8FF",
"f c #D9F8FF",
"g c #DCF8FF",
"h c #DDF9FF",
"j c #DEF9FF",
"k c #E1F9FF",
"l c #E1FAFF",
"z c #E2FAFF",
"x c #E3FAFF",
"c c #E4FAFF",
"v c #E5FAFF",
/* pixels */
"zzzzzzzzzzzzzzzz2...iczczzzzzzzzzzzcg-..@dczzzzzzzzzzzzzzs#..<gc",
"zzzzzzzzzzzzzzzg2...yzczzzzzzzzzzzzcg*..*dczzzzzzzzzzzzzzi%..>gc",
"zzzzzzzzzzzzzzzz5 ..aczzzzzzzzzzzcccg%...dzzzzzzzzzzzcczzs.  ,zz",
"zzzzzzzzzzzzgipsq<26pzczzzzzzzzcgdddp<2<2gzzzzzzzzzzzgdsdy65,yzz",
"zzzzzzzzzzzz6XX*dzgzzczzzzzzzzzcd*.%>zzzzzzzzzzzzzzczaXXX6gzzzzz",
"zzzzzzzzzzcg> ..dcczzzzzzzzzzzccd...%gzzzzzzzzzzzzccza...3zzzzzz",
"zzcczzzzczcz, .Xdccczzzzzzzzzzzcd*  *gcczzzzzzzzzccccy. .6zzzzzz",
"ggggzzzzzggg6**:dggggzzzzzzzzgggp-%+>pzggzzzzzzzzgggga,X@8zzzzzz",
"%%X8zccg:X%*dzgg6X*@dzzzzzzzi-%%3ggzg-**:dczzzzzzy%%*egggzzzzzzz",
".. ,gccgX. Xdccz2 ..aczzzzzzi%. <cccg%  Xpzzzczcz7...qccczzzzzzz",
"...,zccg@  Xdczz2 ..qzczzccci ..>zzzg%..Xdcccccczq ..yzczzzzzzzz",
"%XX6gzzg:XX>dzzzq.%%ezgzzggzi%%X6zzcz-X%*pgzgzgzgq@X%qzzzzzzzzzz",
"pppi2<<6ppddzzzzdgdpy>:,><<<qdppgzczzdddd7<<<2<<5qdddgczzzzzzzzz",
"czcdX. %zccczzzzzccz7 .. .. 6zccczzzccccz2 .. .. iccccczzzzzzzcz",
"zzcdX..*gczzzzzzzzzz7.......6zzzzzzzzzzzg2 ..%...yzzzzzzzzzzgzzz",
"zzzp*X.>gzzzzzzzzzzz6...XXX.8zzzzzzzzzzzg>....#.+sczzzzzzzzzzzzz",
",,,8ipipgzzzzzzzzzcz8...<ppidczzzzzzzzzzg,...7iisgczzzzzzzzzzdq,",
" . ,zzczzzzzzzzzzzzg7...qcccczzzzzzzzzzcz,..%pczzzzzzzzzzzzzzdX ",
"...2zcczzzzczzzzzzzzq...yzzzzzzzzzzzzzzcg6..XiczzzzzzzzzzzzzcdX.",
".X.2zczzzzzzzzzzzzzz7...yzzzzzzzzzzzzzzcg,..Xizzzzzzzzzzzzzzcg*.",
"yyyizzzzzzzzzzzgitqqyyaadczzzzzzzzzzzy7t7aaaagzzzzzzzzzzzsqq7yyi",
"cczzzzzzzzzzzzzz,  .pzccczzzzzzzzzzzg@  Xdccczczzzzzzzzzcs.. ,zc",
"cczczzzzzzzzzzcz,...ycczzzzzzzzzzzzzg*..*dzzzzzzzzzzzzzzcd...,gc",
"zzzzczzzzzzzcczz6 ..szzczzzzzzzzzzccz* .XdczzzzzzzzzzzzzziX. ,zz",
"zzzzzzzzzzzgpyyyaqqydcczzzzzzzzzgyttyyqtygzzzzzzzzzzzdaaqaq7tizz",
"zzzzzzzzzzcg2 .Xszzzzzzzzzzzzzzzp%..%gzzzzczzzzzzzzzza...6zzczzz",
"zzzzzzzzzzcz2 .Xpcczzczzzzzzzzzcp%..*zczzzzzzczzzzzzzy...7zzzzzz",
"zzzzzzzzzccg< ..pccczzzzzzzczczcd%..@gcczzzzzzzzzcczzi...6zzzzzz",
"zzzzzzczdipiq667iiiidczzzzzzgispi2527ddspzzzzzzzzddss2.. 3zzzzzz",
"zzzzzzcg:..%dczz6 XXyzzzzzzci+X.,zccg@.+*dzzzzzcz8X.X....3zzzzzz",
"zzzzzzcg@..%pczz6...yzzzzzzciX..2dzcg% .*pczzzzzzq.......2zzzzzz",
"zzzczcczX  %pczz, ..szcccccci.  >zccg%  Xdccczzccq  ..   2zcczzz",
"zzzzpspi2><2pzzky<<2apgpppisa665yzzcz7<<2ydpddpppy<<<<<<,qdddgzz",
"zzcd*XX>pzzzzzzzzzgzq.##.%%.7gxjzzzzzgzzg2X%%X%..yzcgzzzzi*.%6zc",
"zzcdX .@gczzzzzzzzzz7 #.....6zxxzzzzzzzzg,...... yzczzzzzy...,gc",
"czcg...*gczzzzzzzzzz7.......6zjxzzzzzzzzg<.......dzzzzzzzi%. >zc",
"gzgi>%%>gczzzzzzzzzz7...%%%%ejvxzzzzzzzzg>...X@,:sczczzzcp>*%6dz",
"**%6gggzzczzzzzzzzzzt...3zgzjxxxzzzzzzzcg2...sgggzzzzzzzzzgggp:%",
".. 2zcczzzzczzzzzzzzt ..ycccxxxxzzzzzzzzg6..XdccczzzzzzzzzcccpX ",
".. 2zczzzzzzzzzzzzzz7 ..qczcxjxxzzzzzzzcz, ..dczzzzzzzzzzzcccdX ",
"%.X2zzczzzzzzzzzgzzgq@%Xexxxjxxjzzzzzzgdg2.**dcczzzzzzzzzzgzgs:X",
"gpppzzzzzzzzczzky><2ydddjxxxxxxxzzzzg62,6ddddgcczzzzzzzzcp,,,8pp",
"cccczzzzzzzzzzzz2  .ycccxxxxxxxxzzzzx* .Xdccczzzzzzzzzzzci.. >zc",
"czzzzzzzzzzzzccz6...sczzjxxjjxxjzczcgX .Xdczzzzzzzzzzzzzci...>zc",
"zzzzzzzzzzzzzzzz5.+Xaczzjxxxvgzczzzzg%X.*dczzzzzzzzzzzzzzaXX.,gc",
"zzzzzzzzzzczy227yiisgzzzxxxxvzczg3326isdszczzzzzzzzzzd67,qsaipcz",
"zzzzzzzzzzcg>  .sccczczzxxxxxxzcpX  Xgcczzzzzzzzzzzzcy.. 6zccczc",
"zzzzzzzzzzcz<..XizzzzzzzvgxvgxccdX..*zcczzzzzzzzzczgdaX..7zczgcz",
"zzzzccccgczg6..@sczzzzzzzzzzccccg*. *zczzzzzzzzgzzzzzy.%.3kzzzzz",
"zzzzgzzge8eqydyagzzzzzzzzzzzdq8q2...*gcczzzzzzzzzi8qq<...3zzzzzz",
"zzzzzccg@..@dczczzzzzzzzzzzcd.....X *gczzzzzzzzzzq  .....3zzzzzz",
"zzzzcccg*. Xdzzzzzzczzzzzzzcd.......*zczzzzzzzzzzq...... 7zzzzzz",
"zzzzzzzg*..Xpzzzczczzzzzzzzzs.. ....*gcczzzzzzzzz8. .....2zzczzz",
"zzcgysiyqqqqyisygzzzzzzzdaasaqqqqqq8qasasgczzpyiyy8qqq9eqaydypzc",
"zzcpX. *gczz, .Xszzzzzzzy...6zzzzzzzg*..*dczz2..Xpzzzczgzs...>gc",
"zzziX..-gccg,..Xszzzzgzza...8zzzzzzzz*..%dccz7...dzzczczzi.. >zc",
"zccd%  *zccg, .+pcczzzzcy   2zzzzzzzg@..Xpczz2  Xazczczgzi...>zc",
"ipda6327zzzga632yppiiiady233yzzzzzzzgq277yiii7235sccczczzs766qii",
".+.6gczzzzzzzzzg2.#%..X.yzzzzczzzzzzzzzzz2..XszzxdgcgczzzzzzziX.",
".. 6zcczzzzzzccz3.......7czzzzzzzzzzzzzzg6...sczxxzczczzzzzzzs@.",
".. 2zczzzzzzzzzz2...... tzczzzzzzzzzzzccd,  .sxxxxxxzzzzccccziX ",
"<<>qpzzzzzzzzzzz2...@<>>pzzzzzzzzzzzzppps8,,5sxxxxxjzzzzcgddpi6>",
"zggzzzzzzzzzzzzz2.%.yzzzzczzzzzzzzzzg>+%@sxxxxxxxxxxzzzzcs**X,gz",
"zzzzzzzzzzzzzzzz3...yzzzzzzzzzzzzzzck%  Xsxjxxxjxxjxzzzzzs.. 2zz"
};
