/* XPM */
static char *xpm_[] = {
/* columns rows colors chars-per-pixel */
"64 64 206 2 ",
"   c #9B5E0C",
".  c #9D5B06",
"X  c #9B5D1D",
"o  c #BD4F00",
"O  c #BA4E09",
"+  c #B74E00",
"@  c #AD5502",
"#  c #A55C02",
"$  c #AC5C00",
"%  c #AE540C",
"&  c #A35A0C",
"*  c #A65705",
"=  c #B35402",
"-  c #BB5200",
";  c #B35C00",
":  c #B95B00",
">  c #B4520B",
",  c #B25C08",
"<  c #AE4F12",
"1  c #AC5414",
"2  c #A35B13",
"3  c #AA541B",
"4  c #AB5C1E",
"5  c #B15215",
"6  c #B05318",
"7  c #B35E15",
"8  c #8F6A00",
"9  c #9C6400",
"0  c #946A00",
"q  c #996505",
"w  c #9B7600",
"e  c #996012",
"r  c #A26200",
"t  c #AB6200",
"y  c #A36C00",
"u  c #AD6A00",
"i  c #B56400",
"p  c #B36D00",
"a  c #B96B00",
"s  c #A47200",
"d  c #AC7300",
"f  c #B37400",
"g  c #B47C00",
"h  c #B97900",
"j  c #AF6216",
"k  c #BB6718",
"l  c #9F572A",
"z  c #945A33",
"x  c #A15625",
"c  c #AD5823",
"v  c #A65729",
"b  c #926023",
"n  c #C34D00",
"m  c #C75A05",
"M  c #D85F14",
"N  c #C36D00",
"B  c #C76800",
"V  c #D56400",
"C  c #C57200",
"Z  c #CE7C00",
"A  c #C67700",
"S  c #D07B00",
"D  c #D56C15",
"F  c #D0731C",
"G  c #EF7526",
"H  c #F47422",
"J  c #9E8C00",
"K  c #928300",
"L  c #9A9600",
"P  c #AC8300",
"I  c #BA8100",
"U  c #B28800",
"Y  c #A59B00",
"T  c #BD9200",
"R  c #C48800",
"E  c #DB9500",
"W  c #DC9B00",
"Q  c #D59B00",
"!  c #E58B03",
"~  c #EB9400",
"^  c #E39E00",
"/  c #EB9D00",
"(  c #E3980B",
")  c #E59608",
"_  c #F39B00",
"`  c #F89F02",
"'  c #E38716",
"]  c #FF9918",
"[  c #CFA000",
"{  c #DBA401",
"}  c #D7A800",
"|  c #DBAC00",
" . c #DEB700",
".. c #D8B209",
"X. c #D8AB12",
"o. c #E6A300",
"O. c #ECA500",
"+. c #E5A705",
"@. c #F3AC0C",
"#. c #F3A603",
"$. c #E2B200",
"%. c #F7B700",
"&. c #FCB803",
"*. c #E5A718",
"=. c #FFAE1A",
"-. c #FFBA12",
";. c #F8B71A",
":. c #E8862C",
">. c #E69727",
",. c #EE8538",
"<. c #FF8536",
"1. c #F59036",
"2. c #DFAC29",
"3. c #D5B128",
"4. c #D6B127",
"5. c #DEB933",
"6. c #E3AD25",
"7. c #E9A729",
"8. c #FFAC23",
"9. c #EFB72B",
"0. c #E0B52D",
"q. c #FDB32A",
"w. c #FFBD2A",
"e. c #E7AC39",
"r. c #E3B332",
"t. c #F0B832",
"y. c #EEC700",
"u. c #FFCB02",
"i. c #FEC905",
"p. c #FFD501",
"a. c #FFDD05",
"s. c #FFD40C",
"d. c #FFDC0D",
"f. c #F6DE00",
"g. c #FFC714",
"h. c #FEC518",
"j. c #FFCC18",
"k. c #FFD513",
"l. c #FFD719",
"z. c #FFDA1B",
"x. c #F7E302",
"c. c #FFE203",
"v. c #FDEB02",
"b. c #FFE20B",
"n. c #FFED0C",
"m. c #FEF30D",
"M. c #E4EA1C",
"N. c #FCE312",
"B. c #FFED13",
"V. c #FFE91A",
"C. c #FDFC15",
"Z. c #FEF915",
"A. c #FACA23",
"S. c #FFD42A",
"D. c #FFDC2E",
"F. c #FFD926",
"G. c #FFCB39",
"H. c #EFDE3B",
"J. c #FFDA31",
"K. c #E6E32C",
"L. c #FFE524",
"P. c #FFED2F",
"I. c #E8FA2E",
"U. c #FFF326",
"Y. c #FFF32B",
"T. c #FFFF2E",
"R. c #FAFC26",
"E. c #FFEB33",
"W. c #F8E734",
"Q. c #FFF336",
"!. c #FFFE33",
"~. c #FFFE3C",
"^. c #F1F33C",
"/. c #E8944F",
"(. c #F59B44",
"). c #FA954B",
"_. c #F3994A",
"`. c #FFA448",
"'. c #FFC846",
"]. c #FFD245",
"[. c #FFD757",
"{. c #FFDB55",
"}. c #FFDD5A",
"|. c #FDEB47",
" X c #FFFD44",
".X c #FFFF4A",
"XX c #FFE454",
"oX c #FEE856",
"OX c #FFFF53",
"+X c #FFFF5D",
"@X c #FFF75D",
"#X c #FFC977",
"$X c #FFD37D",
"%X c #FFE366",
"&X c #FFFF62",
"*X c #FFF362",
"=X c #FFFF73",
"-X c #FFFF7B",
";X c #FFCF8A",
":X c #FFFF82",
">X c #FFFF8B",
",X c #FFFF94",
"<X c #FFFF98",
"1X c #FFFFB7",
"2X c #FFFBBB",
"3X c none",
/* pixels */
"3X3X3X3X3X3X3X3X3X3X3X3X3X3X3X3X3X3X3X3X3X3X3X3X3X3X3X3X3X3X3X3X3X3X3X3X3X3X3X3X3X3X3X3X3X3X3X3X3X3X3X3X3X3X3X3X3X3X3X3X3X3X3X3X",
"3X3X3X3X3X3X3X3X3X3X3X3X3X3X3X3X3X3X3X3X3X3X3X3X3X3X3X3X3X3X3X3X3X3X3X3X3X3X3X3X3X3X3X3X3X3X3X3X3X3X3X3X3X3X3X3X3X3X3X3X3X3X3X3X",
"3X3X3X3X3X3X3X3X3X3X3X3X3X3X3X3X3X3X3X3X3X3X3X3X3X3X3X3X3X3X3X3X3X3X3X3X3X3X3X3X3X3X3X3X3X3X3X3X3X3X3X3X3X3X3X3X3X3X3X3X3X3X3X3X",
"3X3X3X3X3X3X3X3X3X3X3X3X3X3X3X3X3X3X3X3X3X3X3X3X3X3X3X3X3X3X3X3X3X3X3X3X3X3X3X3X3X3X3X3X3X3X3X3X3X3X3X3X3X3X3X3X3X3X3X3X3X3X3X3X",
"3X3X3X3X3X3X3X3X3X3X3X3X3X3X3X3X3X3X3X3X3X3X3X3X3X3X3X3X3X3X3X3X3X3X3X3X3X3X3X3X3X3X3X3X3X3X3X3X3X3X3X3X3X3X3X3X3X3X3X3X3X3X3X3X",
"3X3X3X3X3X3X3X3X3X3X3X3X3X3X3X3X3X3X3X3X3X3X3X3X3X3X3X3X3X3X3X3X3X3X3X3X3X3X3X3X3X3X3X3X3X3X3X3X3X3X3X3X3X3X3X3X3X3X3X3X3X3X3X3X",
"3X3X3X3X3X3X3X3X3X3X3X3X3X3X3X3X3X3X3X3X3X3X3X3X3X3X3X3X3X3X3X3X3X3X3X3X3X3X3X3X3X3X3X3X3X3X3X3X3X3X3X3X3X3X3X3X3X3X3X3X3X3X3X3X",
"3X3X3X3X3X3X3X3X3X3X3X3X3X3X3X3X3X3X3X3X3X3X3X3X3X3X3X3X3X3X3X3X3X3X3X3X3X3X3X3X3X3X3X3X3X3X3X3X3X3X3X3X3X3X3X3X3X3X3X3X3X3X3X3X",
"3X3X3X3X3X3X3X3X3X3X3X3X3X3X3X3X3X3X3X3X3X3X3X3X3X3X3X3X3X3X3X3X3X3X3X3X3X3X3X3X3X3X3X3X3X3X3X3X3X3X3X3X3X3X3X3X3X3X3X3X3X3X3X3X",
"3X3X3X3X3X3X3X3X3X3X3X3X3X3X3X3X3X3X3X3X3X3X3X3X3X3X3X3X3X3X3X3X3X3X3X3X3X3X3X3X3X3X3X3X3X3X3X3X3X3X3X3X3X3X3X3X3X3X3X3X3X3X3X3X",
"3X3X3X3X3X3X3X3X3X3X3X3X3X3X3X3X3X3X3X3X3X3X3X3X3X3X3X3X3X3X3X3X3X3X3X3X3X3X3X3X3X3X3X3X3X3X3X3X3X3X3X3X3X3X3X3X3X3X3X3X3X3X3X3X",
"3X3X3X3X3X3X3X3X3X3X3X3X3X3X3X3X3X3X3X3X3X3X3X3X3X3X3X3X3X3X3X3X3X3X3X3X3X3X3X3X3X3X3X3X3X3X3X3X3X3X3X3X3X3X3X3X3X3X3X3X3X3X3X3X",
"3X3X3X3X3X3X3X3X3X3X3X3X3X3X3X3X3X3X3X3X3X3X3X3X3X3X3X3X3X3X3X3X3X3X3X3X3X3X3X3X3X3X3X3X3X3X3X3X3X3X3X3X3X3X3X3X3X3X3X3X3X3X3X3X",
"3X3X3X3X3X3X3X3X3X3X3X3X3X3X3X3X3X3X3X3X3X3X3X3X3X3X3X3X3X3X3X3X3X3X3X3X3X3X3X3X3X3X3X3X3X3X3X3X3X3X3X3X3X3X3X3X3X3X3X3X3X3X3X3X",
"3X3X3X3X3X3X3X3X3X3X3X3X3X3X3X3X3X3X3X3X3X3X3X3X3X3X3X3X3X3X3X3X3X3X3X3X3X3X3X3X3X3X3X3X3X3X3X3X3X3X3X3X3X3X3X3X3X3X3X3X3X3X3X3X",
"3X3X3X3X3X3X3X3X3X3X3X3X3X3X3X3X3X3X3X3X3X3X3X3X3X3X3X3X3X3X3X3X3X3X3X3X3X3X3X3X3X3X3X3X3X3X3X3X3X3X3X3X3X3X3X3X3X3X3X3X3X3X3X3X",
"3X3X3X3X3X3X3X3X3X3X3X3X3X3X3X3X3X3X3X3X3X3X3X3X3X3X3X3X3X3X3X3X3X3X3X3X3X3X3X3X3X3X3X3X3X3X3X3X3X3X3X3X3X3X3X3X3X3X3X3X3X3X3X3X",
"3X3X3X3X3X3X3X3X3X3X3X3X3X3X3X3X3X3X3X3X3X3X3X3X3X3X3X3X3X3X3X3X3X3X3X3X3X3X3X3X3X3X3X3X3X3X3X3X3X3X3X3X3X3X3X3X3X3X3X3X3X3X3X3X",
"3X3X3X3X3X3X3X3X3X3X3X3X3X3X3X3X3X3X3X3X3X3X3X3X3X3X3X3X3X3X3X3X3X3X3X3X3X3X3X3X3X3X3X3X3X3X3X3X3X3X3X3X3X3X3X3X3X3X3X3X3X3X3X3X",
"3X3X3X3X3X3X3X3X3X3X3X3X3X3X3X3X3X3X3X3X3X3X3X3X3X3X3X3X3X3X3X3X3X3X3X3X3X3X3X3X3X3X3X3X3X3X3X3X3X3X3X3X3X3X3X3X3X3X3X3X3X3X3X3X",
"3X3X3X3X3X3X3X3X3X3X3X3X3X3X3X3X3X3X3X3X3X3X3X3X3X3X3X3X3X3X3X3X3X3X3X3X3X3X3X3X3X3X3X3X3X3X3X3X3X3X3X3X3X3X3X3X3X3X3X3X3X3X3X3X",
"3X3X3X3X3X3X3X3X3X3X3X3X3X3X3X3X3X3X3X3X3X3X3X3X3X3X3X3X3X3X3X3X3X3X3X3X3X3X3X3X3X3X3X3X3X3X3X3X3X3X3X3X3X3X3X3X3X3X3X3X3X3X3X3X",
"3X3X3X3X3X3X3X3X3X3X3X3X2 & & # & e   e X   & % = + 3 3X3X3X3X3X3X3X3X3X3X3X3Xv v 6 5 5 3 1 3 3 3 1 1 > l 3X3X3X3X3X3X3X3X3X3X3X",
"3X3X3X3X3X3X3X3X3X3X3Xc @ @ $ # 9 9 9 9 0 9 r i ; : = c 3X3X3X3X3X3X3X3X3X3Xv 1 O o o - = = = = = = - - 3 3X3X3X3X3X3X3X3X3X3X3X",
"3X3X3X3X3X3X3X3X3X3X3 4 ' ! ( 7.6.3.3.3.4.X.{ / ~ ~ ' /.c 3X3X3X3X3X3X3X3X3X4 , B ,.).).D - - F _.(.:.m 1 3X3X3X3X3X3X3X3X3X3X3X",
"3X3X3X3X3X3X3X3X3Xb . >.'.G.oX,X,X>X>X>X:X&X.X.XE.k.'.`.k X 3X3X3X3X3X3X3X3Xj = D ;X2X2X1.- = (.1X1X#XV = 3X3X3X3X3X3X3X3X3X3X3X",
"3X3X3X3X3X3X3X3X3X& * ) F.z.Q.-X-X>X>X>X-X+X X~.U.a.S.8.B @ 3X3X3X3X3X3X3X3X7 # h %X,X<X*.t t 6.,X,X}.g 9 3X3X3X3X3X3X3X3X3X3X3X",
"3X3X3X3X3X3X3X3X3X@ $ +.E.U.R.I.^.|.oXXXXXD.k.d.b.B.L.-.N - 3X3X3X3X3X3X3X3X, r U |.=X=X[ d s ..=X=XW.J 8 3X3X3X3X3X3X3X3X3X3X3X",
"3X3X3X3X3X3X3X3X3X= ; 9.=X&XM.L J P g g g g P P  .!.~.h.N ; 3X3X3X3X3X3X3X3X$ y U L..X.X{ d s | .X.XN.J 0 3X3X3X3X3X3X3X3X3X3X3X",
"3X3X3X3X3X3X3X3X3X@ $ t.>X-XK.K w 9 $ $ ; ; i u | ~.~.s.A i ; = $ # r # $ $ t y U N.~.~.{ d d | ~.~.x.J 0 3X3X3X3X3X3X3X3X3X3X3X",
"3X3X3X3X3X3X3X3X3X@ ; 9.:X-XH.w r 3X3X3X3X3X: i o. X!.a.R h a i p d d f f p f g T c.T.!.+.g g $.!.T.x.Y u 3 3 3 3 3X3X3X3X3X3X3X",
"3X3X3X3X3X3X3X3X3X@ $ ;.+X+XA.w # 3X3X3X3X3Xn i / .X!.m.u.%.%.G.[.}.[.{.[.].A.i.p.v.n.V.a.u.u.a.B.m.v.x.A.O O 3 3 3X3X3X3X3X3X3X",
"3X3X3X3X3X3X3X3X3X@ $ @..X.Xh.u $ 3X3X3X3X3Xn : / .X!.C.v.b.F.=X,X,X>X>X,X-XOX X!.v.a.a.Y. X XU.a.c.n.T.@X$XG O 3 3X3X3X3X3X3X3X",
"3X3X3X3X3X3X3X3X3X@ ; @..X.Xh.u : 3X3X3X3X3Xn : / OX!.C.v.d.D.-X,X>X>X,X,X-XOX.X!.N.a.k.E..X XP.k.d.V.!.*X$XH O 3 3X3X3X3X3X3X3X",
"3X3X3X3X3X3X3X3X3X# t @..X.Xh.u ; 3X3X3X3X3X- : / .X!.v.$.W E *.r.0.5.r.r.6.*.+.O.^ ~ ~ _ ` ` / ~ ~ ~ O.] <.M O c 3X3X3X3X3X3X3X",
"3X3X3X3X3X3X3X3X3X# r @..X.Xg.u ; + n n n - : i o. X!.p.I p i i t 9 9 9 9 r r t t t i : : : : : : : : : - n O 5 x 3X3X3X3X3X3X3X",
"3X3X3X3X3X3X3X3X3X# t #..X Xu.f u $ ; ; : i i d | !.~.j.C : : - @ # &   & & & * # # # @ @ $ $ = @ + = + > 5 3 x z 3X3X3X3X3X3X3X",
"3X3X3X3X3X3X3X3X3X# t +.Q.U.p.{ E E E E E W Q [ y.C.Q.h.B - 3X3X3X3X3X3X3X3X3X3X3X3X3X3X3X3X3X3X3X3X3X3X3X3X3X3X3X3X3X3X3X3X3X3X",
"3X3X3X3X3X3X3X3X3X& r ^ l.d.V.!.Q. X X XQ.~.!.T.m.x.z.=.B - 3X3X3X3X3X3X3X3X3X3X3X3X3X3X3X3X3X3X3X3X3X3X3X3X3X3X3X3X3X3X3X3X3X3X",
"3X3X3X3X3X3X3X3X3X  $ ( S.l.L.~..XOX.X.X.X.X.X~.U.d.S.q.a = 3X3X3X3X3X3X3X3X3X3X3X3X3X3X3X3X3X3X3X3X3X3X3X3X3X3X3X3X3X3X3X3X3X3X",
"3X3X3X3X3X3X3X3X3X3X3X>.w.-.g.D.D.D.J.D.D.D.D.D.j.&.w.e.4 3X3X3X3X3X3X3X3X3X3X3X3X3X3X3X3X3X3X3X3X3X3X3X3X3X3X3X3X3X3X3X3X3X3X3X",
"3X3X3X3X3X3X3X3X3X3X3X3 C C A Z Z Z S Z Z Z Z S S A h 3 3X3X3X3X3X3X3X3X3X3X3X3X3X3X3X3X3X3X3X3X3X3X3X3X3X3X3X3X3X3X3X3X3X3X3X3X",
"3X3X3X3X3X3X3X3X3X3X3X3X3 $ $ ; ; $ = = = ; ; $ $ $   3X3X3X3X3X3X3X3X3X3X3X3X3X3X3X3X3X3X3X3X3X3X3X3X3X3X3X3X3X3X3X3X3X3X3X3X3X",
"3X3X3X3X3X3X3X3X3X3X3X3X3X2 % @ % > % % < 3 6 1 1 1 3X3X3X3X3X3X3X3X3X3X3X3X3X3X3X3X3X3X3X3X3X3X3X3X3X3X3X3X3X3X3X3X3X3X3X3X3X3X",
"3X3X3X3X3X3X3X3X3X3X3X3X3X3X3X3X3X3X3X3X3X3X3X3X3X3X3X3X3X3X3X3X3X3X3X3X3X3X3X3X3X3X3X3X3X3X3X3X3X3X3X3X3X3X3X3X3X3X3X3X3X3X3X3X",
"3X3X3X3X3X3X3X3X3X3X3X3X3X3X3X3X3X3X3X3X3X3X3X3X3X3X3X3X3X3X3X3X3X3X3X3X3X3X3X3X3X3X3X3X3X3X3X3X3X3X3X3X3X3X3X3X3X3X3X3X3X3X3X3X",
"3X3X3X3X3X3X3X3X3X3X3X3X3X3X3X3X3X3X3X3X3X3X3X3X3X3X3X3X3X3X3X3X3X3X3X3X3X3X3X3X3X3X3X3X3X3X3X3X3X3X3X3X3X3X3X3X3X3X3X3X3X3X3X3X",
"3X3X3X3X3X3X3X3X3X3X3X3X3X3X3X3X3X3X3X3X3X3X3X3X3X3X3X3X3X3X3X3X3X3X3X3X3X3X3X3X3X3X3X3X3X3X3X3X3X3X3X3X3X3X3X3X3X3X3X3X3X3X3X3X",
"3X3X3X3X3X3X3X3X3X3X3X3X3X3X3X3X3X3X3X3X3X3X3X3X3X3X3X3X3X3X3X3X3X3X3X3X3X3X3X3X3X3X3X3X3X3X3X3X3X3X3X3X3X3X3X3X3X3X3X3X3X3X3X3X",
"3X3X3X3X3X3X3X3X3X3X3X3X3X3X3X3X3X3X3X3X3X3X3X3X3X3X3X3X3X3X3X3X3X3X3X3X3X3X3X3X3X3X3X3X3X3X3X3X3X3X3X3X3X3X3X3X3X3X3X3X3X3X3X3X",
"3X3X3X3X3X3X3X3X3X3X3X3X3X3X3X3X3X3X3X3X3X3X3X3X3X3X3X3X3X3X3X3X3X3X3X3X3X3X3X3X3X3X3X3X3X3X3X3X3X3X3X3X3X3X3X3X3X3X3X3X3X3X3X3X",
"3X3X3X3X3X3X3X3X3X3X3X3X3X3X3X3X3X3X3X3X3X3X3X3X3X3X3X3X3X3X3X3X3X3X3X3X3X3X3X3X3X3X3X3X3X3X3X3X3X3X3X3X3X3X3X3X3X3X3X3X3X3X3X3X",
"3X3X3X3X3X3X3X3X3X3X3X3X3X3X3X3X3X3X3X3X3X3X3X3X3X3X3X3X3X3X3X3X3X3X3X3X3X3X3X3X3X3X3X3X3X3X3X3X3X3X3X3X3X3X3X3X3X3X3X3X3X3X3X3X",
"3X3X3X3X3X3X3X3X3X3X3X3X3X3X3X3X3X3X3X3X3X3X3X3X3X3X3X3X3X3X3X3X3X3X3X3X3X3X3X3X3X3X3X3X3X3X3X3X3X3X3X3X3X3X3X3X3X3X3X3X3X3X3X3X",
"3X3X3X3X3X3X3X3X3X3X3X3X3X3X3X3X3X3X3X3X3X3X3X3X3X3X3X3X3X3X3X3X3X3X3X3X3X3X3X3X3X3X3X3X3X3X3X3X3X3X3X3X3X3X3X3X3X3X3X3X3X3X3X3X",
"3X3X3X3X3X3X3X3X3X3X3X3X3X3X3X3X3X3X3X3X3X3X3X3X3X3X3X3X3X3X3X3X3X3X3X3X3X3X3X3X3X3X3X3X3X3X3X3X3X3X3X3X3X3X3X3X3X3X3X3X3X3X3X3X",
"3X3X3X3X3X3X3X3X3X3X3X3X3X3X3X3X3X3X3X3X3X3X3X3X3X3X3X3X3X3X3X3X3X3X3X3X3X3X3X3X3X3X3X3X3X3X3X3X3X3X3X3X3X3X3X3X3X3X3X3X3X3X3X3X",
"3X3X3X3X3X3X3X3X3X3X3X3X3X3X3X3X3X3X3X3X3X3X3X3X3X3X3X3X3X3X3X3X3X3X3X3X3X3X3X3X3X3X3X3X3X3X3X3X3X3X3X3X3X3X3X3X3X3X3X3X3X3X3X3X",
"3X3X3X3X3X3X3X3X3X3X3X3X3X3X3X3X3X3X3X3X3X3X3X3X3X3X3X3X3X3X3X3X3X3X3X3X3X3X3X3X3X3X3X3X3X3X3X3X3X3X3X3X3X3X3X3X3X3X3X3X3X3X3X3X",
"3X3X3X3X3X3X3X3X3X3X3X3X3X3X3X3X3X3X3X3X3X3X3X3X3X3X3X3X3X3X3X3X3X3X3X3X3X3X3X3X3X3X3X3X3X3X3X3X3X3X3X3X3X3X3X3X3X3X3X3X3X3X3X3X",
"3X3X3X3X3X3X3X3X3X3X3X3X3X3X3X3X3X3X3X3X3X3X3X3X3X3X3X3X3X3X3X3X3X3X3X3X3X3X3X3X3X3X3X3X3X3X3X3X3X3X3X3X3X3X3X3X3X3X3X3X3X3X3X3X",
"3X3X3X3X3X3X3X3X3X3X3X3X3X3X3X3X3X3X3X3X3X3X3X3X3X3X3X3X3X3X3X3X3X3X3X3X3X3X3X3X3X3X3X3X3X3X3X3X3X3X3X3X3X3X3X3X3X3X3X3X3X3X3X3X",
"3X3X3X3X3X3X3X3X3X3X3X3X3X3X3X3X3X3X3X3X3X3X3X3X3X3X3X3X3X3X3X3X3X3X3X3X3X3X3X3X3X3X3X3X3X3X3X3X3X3X3X3X3X3X3X3X3X3X3X3X3X3X3X3X",
"3X3X3X3X3X3X3X3X3X3X3X3X3X3X3X3X3X3X3X3X3X3X3X3X3X3X3X3X3X3X3X3X3X3X3X3X3X3X3X3X3X3X3X3X3X3X3X3X3X3X3X3X3X3X3X3X3X3X3X3X3X3X3X3X"
};
