/* XPM */
static char * player_xpm[] = {
"64 64 10 1",
" 	c None",
".	c #47704C",
"+	c #FFFFFF",
"@	c #FFFFFF",
"#	c #FFFFFF",
"$	c #FFFFFF",
"%	c #FFFFFF",
"&	c #FFFFFF",
"*	c #FFFFFF",
"=	c #FFFFFF",
"                                                                ",
"                                                                ",
"                                                                ",
"                                                                ",
"                                                                ",
"                                                                ",
"                                                                ",
"                                                                ",
"                                                                ",
"                                                                ",
"                                                                ",
"                                                                ",
"                                                                ",
"                                                                ",
"          O   O                                                 ",  
"         O.O O.O                                                ",
"         O..OO..O                                               ",
"        O.O.OO..O                                               ",
"        O.O..O...O                                              ",
"        O.O......O                                              ",          
"        O...OO.OO.OO                                            ",   
"        O...O..O....O                                           ",
"        O...........O                                           ",      
"         O....O.O.O.O                                           ",
"         O.........O                                            ",           
"        O......OOOO                                             ",                   
"     O O........OO                                              ",                   
"   OO.O...........O                                             ",        
"   O..OO...........O                                            ",    
"   O..O......O..O..0                                            ",
"    O.....O..O..OOO                                             ", 
"     OOOO.O.OO..O                                               ",
"                                                                ",
"                                                                ",
"                                                                ",
"                                                                ",
"                                                                ",
"                                                                ",
"                                                                ",
"                                                                ",
"                                                                ",
"                                                                ",
"                                                                ",
"                                                                ",
"                                                                ",
"                                                                ",
"                                                                ",
"                                                                ",
"                                                                ",
"                                                                ",
"                                                                ",
"                                                                ",
"                                                                ",
"                                                                ",
"                                                                ",
"                                                                ",
"                                                                ",
"                                                                ",
"                                                                ",
"                                                                ",
"                                                                ",
"                                                                ",
"                                                                ",
"                                                                "};
