/* XPM */
static char * wall_xpm[] = {
"64 64 9 1",
" 	c None",
".	c #E6B0AA",
"+	c #FFFFFF",
"@	c #47704C",
"#	c #FFFFFF",
"$	c #FFFFFF",
"%	c #FFFFFF",
"&	c #E92800",
"*	c #280941",
"                                                                ",
"                                                                ",
"                                                                ",
"                                                                ",
"                     $$$$$$$$$$$$$$$$$$$$$$$$                   ",
"                     $......................$                   ",
"                     $......................$                   ",
"                     $......................$                   ",
"                     $......................$                   ",
"                     $......................$                   ",
"                     $......................$                   ",
"                     $......................$                   ",
"                     $......................$                   ",
"                     $......................$                   ",
"                     $......................$                   ",
"                     $......................$                   ",
"                     $......................$                   ",
"                     $......................$                   ",
"                     $......................$                   ",
"                     $......................$                   ",
"                     $......................$                   ",
"                     $......................$                   ",
"                     $......................$                   ",
"                     $......................$                   ",
"                     $......................$                   ",
"                     $......................$                   ",
"                     $......................$                   ",
"                     $......................$                   ",
"                     $......................$                   ",
"                     $......................$                   ",
"                     $......................$                   ",
"                     $$$$$$$$$$$$$$$$$$$$$$$$                   ",
"                                                                ",
"                                                                ",
"                                                                ",
"                                                                ",
"                                                                ",
"                                                                ",
"                                                                ",
"                                                                ",
"                                                                ",
"                                                                ",
"                                                                ",
"                                                                ",
"                                                                ",
"                                                                ",
"                                                                ",
"                                                                ",
"                                                                ",
"                                                                ",
"                                                                ",
"                                                                ",
"                                                                ",
"                                                                ",
"                                                                ",
"                                                                ",
"                                                                ",
"                                                                ",
"                                                                ",
"                                                                ",
"                                                                ",
"                                                                ",
"                                                                ",
"                                                                "};