/* XPM */
static char *xpm_[] = {
/* columns rows colors chars-per-pixel */
"64 64 48 1 ",
"  c black",
". c #0B0805",
"X c #0F0B06",
"o c #21180D",
"O c #241B0F",
"+ c #2E2112",
"@ c #312413",
"# c #3C2C17",
"$ c #3E2D18",
"% c #383621",
"& c #42301A",
"* c #46331C",
"= c #4C371D",
"- c #403D26",
"; c #573F23",
": c #0B470B",
"> c #0D510D",
", c #0F620F",
"< c #116C11",
"1 c #137813",
"2 c #49462A",
"3 c #594122",
"4 c #584023",
"5 c #504D2F",
"6 c #6D4F2C",
"7 c #6E502A",
"8 c #6C673F",
"9 c #1C3F79",
"0 c #716C42",
"q c #805D32",
"w c #9E733F",
"e c #179017",
"r c #19A119",
"t c #21D621",
"y c #928C55",
"u c #A8A162",
"i c #BFB76F",
"p c #D9D07E",
"a c #24509B",
"s c #415B87",
"d c #65789A",
"f c #5374AD",
"g c #2E66C7",
"h c #6A95DE",
"j c #EFE58B",
"k c #819AC6",
"l c #A6C6FF",
"z c None",
/* pixels */
"llllllllllhhhhllllllllllllhhhhllllllllllllhhhhllllllllllllhhhhll",
"hhlllllhhhhhhhhhhhlllllhhhhhhhhhhhlllllhhhhhhhhhhhlllllhhhhhhhhh",
"hhhhhhhhhhhggghhhhhhhhhhhhhggghhhhhhhhhhhhhggghhhhhhhhhhhhhggghh",
"hhhhhhhhgggggggghhhhhhhhgggggggghhhhhhhhgggggggghhhhhhhhgggggggg",
"gggggggggggggggggggggggggggggggggggggggggggggggggggggggggggggggg",
"gggggggggggggggggggggggggggggggggggggggggggggggggggggggggggggggg",
"llllllggggggggllllllllggggggggllllllllggggggggllllllllggggggggll",
"lllllllggggllllllllllllggggllllllllllllggggllllllllllllgggglllll",
"hhhlllllllllllhhhhhlllllllllllhhhhhlllllllllllhhhhhlllllllllllhh",
"hhhhhhhhlllllhhhhhhhhhhhlllllhhhhhhhhhhhlllllhhhhhhhhhhhlllllhhh",
"gghhhhhhhhhhhhhggghhhhhhhhhhhhhggghhhhhhhhhhhhhggghhhhhhhhhhhhhg",
"ggggghhhhhhhhgggggggghhhhhhhhgggggggghhhhhhhhgggggggghhhhhhhhggg",
"gggggggggggggggggggggggggggggggggggggggggggggggggggggggggggggggg",
"gggggggggggggggggggggggggggggggggggggggggggggggggggggggggggggggg",
"ggggggggglllllllggggggggglllllllggggggggglllllllggggggggglllllll",
"llggglllllllllllllggglllllllllllllggglllllllllllllggglllllllllll",
"llllllllllhhhhllllllllllllhhhhllllllllllllhhhhllllllllllllhhhhll",
"hhlllllhhhhhhhhhhhlllllhhhhhhhhhhhlllllhhhhhhhhhhhlllllhhhhhhhhh",
"hhhhhhhhhhhggghhhhhhhhhhhhhggghhhhhhhhhhhhhggghhhhhhhhhhhhhggghh",
"hhhhhhhhgggggggghhhhhhhhgggggggghhhhhhhhgggggggghhhhhhhhgggggggg",
"gggggggggggggggggggggggggggggggggggggggggggggggggggggggggggggggg",
"gggggggggggggggggggggggggggggggggggggggggggggggggggggggggggggggg",
"llllllggggggggllllllllggggggggllllllllggggggggllllllllggggggggll",
"lllllllggggllllllllllllggggllllllllllllggggllllllllllllgggglllll",
"hhhlllllllllllhhhhhlllllllllllhhhhhlllllllllllhhhhhlllllllllllhh",
"hhhhhhhhlllllhhhhhhhhhhhlllllhhhhhhhhhhhlllllhhhhhhhhhhhlllllhhh",
"gghhhhhhhhhhhhhggghhhhhhhhhhhhhggghhhhhhhhhhhhhggghhhhhhhhhhhhhg",
"ggggghhhhhhhhgggggggghhhhhhhhgggggggghhhhhhhhgggggggghhhhhhhhggg",
"gggggggggggggggggggggggggggggggggggggggggggggggggggggggggggggggg",
"gggggggggggggggggggggggggggggggggggggggggggggggggggggggggggggggg",
"ggggggggglllllllggggggggglllllllggggggggglllllllggggggggglllllll",
"llggglllllllllllllggglllllllllllllggglllllllllllllggglllllllllll",
"llllllllllhhhhllllllllllllhhhhllllllllllllhhhhllllllllllllhhhhll",
"hhlllllhhhhhhhhhhhlllllhhhhhhhhhhhlllllhhhhhhhhhhhlllllhhhhhhhhh",
"hhhhhhhhhhhggghhhhhhhhhhhhhggghhhhhhhhhhhhhggghhhhhhhhhhhhhggghh",
"hhhhhhhhgggggggghhhhhhhhgggggggghhhhhhhhgggggggghhhhhhhhgggggggg",
"gggggggggggggggggggggggggggggggggggggggggggggggggggggggggggggggg",
"gggggggggggggggggggggggggggggggggggggggggggggggggggggggggggggggg",
"llllllggggggggllllllllggggggggllllllllggggggggllllllllggggggggll",
"lllllllggggllllllllllllggggllllllllllllggggllllllllllllgggglllll",
"hhhlllllllllllhhhhhlllllllllllhhhhhlllllllllllhhhhhlllllllllllhh",
"hhhhhhhhlllllhhhhhhhhhhhlllllhhhhhhhhhhhlllllhhhhhhhhhhhlllllhhh",
"gghhhhhhhhhhhhhggghhhhhhhhhhhhhggghhhhhhhhhhhhhggghhhhhhhhhhhhhg",
"ggggghhhhhhhhgggggggghhhhhhhhgggggggghhhhhhhhgggggggghhhhhhhhggg",
"gggggggggggggggggggggggggggggggggggggggggggggggggggggggggggggggg",
"gggggggggggggggggggggggggggggggggggggggggggggggggggggggggggggggg",
"ggggggggglllllllggggggggglllllllggggggggglllllllggggggggglllllll",
"llggglllllllllllllggglllllllllllllggglllllllllllllggglllllllllll",
"llllllllllhhhhllllllllllllhhhhllllllllllllhhhhllllllllllllhhhhll",
"hhlllllhhhhhhhhhhhlllllhhhhhhhhhhhlllllhhhhhhhhhhhlllllhhhhhhhhh",
"hhhhhhhhhhhggghhhhhhhhhhhhhggghhhhhhhhhhhhhggghhhhhhhhhhhhhggghh",
"hhhhhhhhgggggggghhhhhhhhgggggggghhhhhhhhgggggggghhhhhhhhgggggggg",
"gggggggggggggggggggggggggggggggggggggggggggggggggggggggggggggggg",
"gggggggggggggggggggggggggggggggggggggggggggggggggggggggggggggggg",
"llllllggggggggllllllllggggggggllllllllggggggggllllllllggggggggll",
"lllllllggggllllllllllllggggllllllllllllggggllllllllllllgggglllll",
"hhhlllllllllllhhhhhlllllllllllhhhhhlllllllllllhhhhhlllllllllllhh",
"hhhhhhhhlllllhhhhhhhhhhhlllllhhhhhhhhhhhlllllhhhhhhhhhhhlllllhhh",
"gghhhhhhhhhhhhhggghhhhhhhhhhhhhggghhhhhhhhhhhhhggghhhhhhhhhhhhhg",
"ggggghhhhhhhhgggggggghhhhhhhhgggggggghhhhhhhhgggggggghhhhhhhhggg",
"gggggggggggggggggggggggggggggggggggggggggggggggggggggggggggggggg",
"gggggggggggggggggggggggggggggggggggggggggggggggggggggggggggggggg",
"ggggggggglllllllggggggggglllllllggggggggglllllllggggggggglllllll",
"llggglllllllllllllggglllllllllllllggglllllllllllllggglllllllllll"};